<?xml version="1.0" encoding="utf-8" standalone="no"?>
<!DOCTYPE svg PUBLIC "-//W3C//DTD SVG 1.1//EN"
  "http://www.w3.org/Graphics/SVG/1.1/DTD/svg11.dtd">
<svg xmlns:xlink="http://www.w3.org/1999/xlink" width="872.39952pt" height="728.39952pt" viewBox="0 0 872.39952 728.39952" xmlns="http://www.w3.org/2000/svg" version="1.1">
 <metadata>
  <rdf:RDF xmlns:dc="http://purl.org/dc/elements/1.1/" xmlns:cc="http://creativecommons.org/ns#" xmlns:rdf="http://www.w3.org/1999/02/22-rdf-syntax-ns#">
   <cc:Work>
    <dc:type rdf:resource="http://purl.org/dc/dcmitype/StillImage"/>
    <dc:date>2026-07-22T01:16:17.256531</dc:date>
    <dc:format>image/svg+xml</dc:format>
    <dc:creator>
     <cc:Agent>
      <dc:title>Matplotlib v3.11.1, https://matplotlib.org/</dc:title>
     </cc:Agent>
    </dc:creator>
   </cc:Work>
  </rdf:RDF>
 </metadata>
 <defs>
  <style type="text/css">*{stroke-linejoin: round; stroke-linecap: butt}</style>
 </defs>
 <g id="figure_1">
  <g id="patch_1">
   <path d="M 0 728.39952
L 872.39952 728.39952
L 872.39952 0
L 0 0
z
" style="fill: #ffffff"/>
  </g>
  <g id="axes_1">
   <g id="patch_2">
    <path d="M 50.465625 265.787065
L 865.19952 265.787065
L 865.19952 42.059543
L 50.465625 42.059543
z
" style="fill: #ffffff"/>
   </g>
   <g id="patch_3">
    <path d="M 673.557964 265.787065
L 775.486677 265.787065
L 775.486677 42.059543
L 673.557964 42.059543
z
" clip-path="url(#p1f618138a5)" style="fill: #e5a54b; opacity: 0.14; stroke: #e5a54b; stroke-linejoin: miter"/>
   </g>
   <g id="matplotlib.axis_1">
    <g id="xtick_1">
     <g id="line2d_1">
      <path d="M 78.214223 265.787065
L 78.214223 42.059543
" clip-path="url(#p1f618138a5)" style="fill: none; stroke: #b0b0b0; stroke-opacity: 0.24; stroke-width: 0.55; stroke-linecap: square"/>
     </g>
     <g id="line2d_2">
      <defs>
       <path id="m959cabaffe" d="M 0 0
L 0 3.5
" style="stroke: #000000; stroke-width: 0.8"/>
      </defs>
      <g>
       <use xlink:href="#m959cabaffe" x="78.214223" y="265.787065" style="stroke: #000000; stroke-width: 0.8"/>
      </g>
     </g>
    </g>
    <g id="xtick_2">
     <g id="line2d_3">
      <path d="M 263.204874 265.787065
L 263.204874 42.059543
" clip-path="url(#p1f618138a5)" style="fill: none; stroke: #b0b0b0; stroke-opacity: 0.24; stroke-width: 0.55; stroke-linecap: square"/>
     </g>
     <g id="line2d_4">
      <g>
       <use xlink:href="#m959cabaffe" x="263.204874" y="265.787065" style="stroke: #000000; stroke-width: 0.8"/>
      </g>
     </g>
    </g>
    <g id="xtick_3">
     <g id="line2d_5">
      <path d="M 340.310968 265.787065
L 340.310968 42.059543
" clip-path="url(#p1f618138a5)" style="fill: none; stroke: #b0b0b0; stroke-opacity: 0.24; stroke-width: 0.55; stroke-linecap: square"/>
     </g>
     <g id="line2d_6">
      <g>
       <use xlink:href="#m959cabaffe" x="340.310968" y="265.787065" style="stroke: #000000; stroke-width: 0.8"/>
      </g>
     </g>
    </g>
    <g id="xtick_4">
     <g id="line2d_7">
      <path d="M 417.417063 265.787065
L 417.417063 42.059543
" clip-path="url(#p1f618138a5)" style="fill: none; stroke: #b0b0b0; stroke-opacity: 0.24; stroke-width: 0.55; stroke-linecap: square"/>
     </g>
     <g id="line2d_8">
      <g>
       <use xlink:href="#m959cabaffe" x="417.417063" y="265.787065" style="stroke: #000000; stroke-width: 0.8"/>
      </g>
     </g>
    </g>
    <g id="xtick_5">
     <g id="line2d_9">
      <path d="M 519.345775 265.787065
L 519.345775 42.059543
" clip-path="url(#p1f618138a5)" style="fill: none; stroke: #b0b0b0; stroke-opacity: 0.24; stroke-width: 0.55; stroke-linecap: square"/>
     </g>
     <g id="line2d_10">
      <g>
       <use xlink:href="#m959cabaffe" x="519.345775" y="265.787065" style="stroke: #000000; stroke-width: 0.8"/>
      </g>
     </g>
    </g>
    <g id="xtick_6">
     <g id="line2d_11">
      <path d="M 596.45187 265.787065
L 596.45187 42.059543
" clip-path="url(#p1f618138a5)" style="fill: none; stroke: #b0b0b0; stroke-opacity: 0.24; stroke-width: 0.55; stroke-linecap: square"/>
     </g>
     <g id="line2d_12">
      <g>
       <use xlink:href="#m959cabaffe" x="596.45187" y="265.787065" style="stroke: #000000; stroke-width: 0.8"/>
      </g>
     </g>
    </g>
    <g id="xtick_7">
     <g id="line2d_13">
      <path d="M 673.557964 265.787065
L 673.557964 42.059543
" clip-path="url(#p1f618138a5)" style="fill: none; stroke: #b0b0b0; stroke-opacity: 0.24; stroke-width: 0.55; stroke-linecap: square"/>
     </g>
     <g id="line2d_14">
      <g>
       <use xlink:href="#m959cabaffe" x="673.557964" y="265.787065" style="stroke: #000000; stroke-width: 0.8"/>
      </g>
     </g>
    </g>
    <g id="xtick_8">
     <g id="line2d_15">
      <path d="M 775.486677 265.787065
L 775.486677 42.059543
" clip-path="url(#p1f618138a5)" style="fill: none; stroke: #b0b0b0; stroke-opacity: 0.24; stroke-width: 0.55; stroke-linecap: square"/>
     </g>
     <g id="line2d_16">
      <g>
       <use xlink:href="#m959cabaffe" x="775.486677" y="265.787065" style="stroke: #000000; stroke-width: 0.8"/>
      </g>
     </g>
    </g>
    <g id="xtick_9">
     <g id="line2d_17">
      <path d="M 852.592771 265.787065
L 852.592771 42.059543
" clip-path="url(#p1f618138a5)" style="fill: none; stroke: #b0b0b0; stroke-opacity: 0.24; stroke-width: 0.55; stroke-linecap: square"/>
     </g>
     <g id="line2d_18">
      <g>
       <use xlink:href="#m959cabaffe" x="852.592771" y="265.787065" style="stroke: #000000; stroke-width: 0.8"/>
      </g>
     </g>
    </g>
   </g>
   <g id="matplotlib.axis_2">
    <g id="ytick_1">
     <g id="line2d_19">
      <path d="M 50.465625 237.491757
L 865.19952 237.491757
" clip-path="url(#p1f618138a5)" style="fill: none; stroke: #b0b0b0; stroke-opacity: 0.24; stroke-width: 0.55; stroke-linecap: square"/>
     </g>
     <g id="line2d_20">
      <defs>
       <path id="mbeb1b13f03" d="M 0 0
L -3.5 0
" style="stroke: #000000; stroke-width: 0.8"/>
      </defs>
      <g>
       <use xlink:href="#mbeb1b13f03" x="50.465625" y="237.491757" style="stroke: #000000; stroke-width: 0.8"/>
      </g>
     </g>
     <g id="text_1">
      <!-- 31 -->
      <g transform="translate(30.740625 241.290585) scale(0.1 -0.1)">
       <defs>
        <path id="DejaVuSans-16" d="M 2597 2516
Q 3050 2419 3304 2112
Q 3559 1806 3559 1356
Q 3559 666 3084 287
Q 2609 -91 1734 -91
Q 1441 -91 1130 -33
Q 819 25 488 141
L 488 750
Q 750 597 1062 519
Q 1375 441 1716 441
Q 2309 441 2620 675
Q 2931 909 2931 1356
Q 2931 1769 2642 2001
Q 2353 2234 1838 2234
L 1294 2234
L 1294 2753
L 1863 2753
Q 2328 2753 2575 2939
Q 2822 3125 2822 3475
Q 2822 3834 2567 4026
Q 2313 4219 1838 4219
Q 1578 4219 1281 4162
Q 984 4106 628 3988
L 628 4550
Q 988 4650 1302 4700
Q 1616 4750 1894 4750
Q 2613 4750 3031 4423
Q 3450 4097 3450 3541
Q 3450 3153 3228 2886
Q 3006 2619 2597 2516
z
" transform="scale(0.015625)"/>
        <path id="DejaVuSans-14" d="M 794 531
L 1825 531
L 1825 4091
L 703 3866
L 703 4441
L 1819 4666
L 2450 4666
L 2450 531
L 3481 531
L 3481 0
L 794 0
L 794 531
z
" transform="scale(0.015625)"/>
       </defs>
       <use xlink:href="#DejaVuSans-16"/>
       <use xlink:href="#DejaVuSans-14" transform="translate(63.625 0)"/>
      </g>
     </g>
    </g>
    <g id="ytick_2">
     <g id="line2d_21">
      <path d="M 50.465625 191.956983
L 865.19952 191.956983
" clip-path="url(#p1f618138a5)" style="fill: none; stroke: #b0b0b0; stroke-opacity: 0.24; stroke-width: 0.55; stroke-linecap: square"/>
     </g>
     <g id="line2d_22">
      <g>
       <use xlink:href="#mbeb1b13f03" x="50.465625" y="191.956983" style="stroke: #000000; stroke-width: 0.8"/>
      </g>
     </g>
     <g id="text_2">
      <!-- 32 -->
      <g transform="translate(30.740625 195.755811) scale(0.1 -0.1)">
       <defs>
        <path id="DejaVuSans-15" d="M 1228 531
L 3431 531
L 3431 0
L 469 0
L 469 531
Q 828 903 1448 1529
Q 2069 2156 2228 2338
Q 2531 2678 2651 2914
Q 2772 3150 2772 3378
Q 2772 3750 2511 3984
Q 2250 4219 1831 4219
Q 1534 4219 1204 4116
Q 875 4013 500 3803
L 500 4441
Q 881 4594 1212 4672
Q 1544 4750 1819 4750
Q 2544 4750 2975 4387
Q 3406 4025 3406 3419
Q 3406 3131 3298 2873
Q 3191 2616 2906 2266
Q 2828 2175 2409 1742
Q 1991 1309 1228 531
z
" transform="scale(0.015625)"/>
       </defs>
       <use xlink:href="#DejaVuSans-16"/>
       <use xlink:href="#DejaVuSans-15" transform="translate(63.625 0)"/>
      </g>
     </g>
    </g>
    <g id="ytick_3">
     <g id="line2d_23">
      <path d="M 50.465625 146.422209
L 865.19952 146.422209
" clip-path="url(#p1f618138a5)" style="fill: none; stroke: #b0b0b0; stroke-opacity: 0.24; stroke-width: 0.55; stroke-linecap: square"/>
     </g>
     <g id="line2d_24">
      <g>
       <use xlink:href="#mbeb1b13f03" x="50.465625" y="146.422209" style="stroke: #000000; stroke-width: 0.8"/>
      </g>
     </g>
     <g id="text_3">
      <!-- 33 -->
      <g transform="translate(30.740625 150.221037) scale(0.1 -0.1)">
       <use xlink:href="#DejaVuSans-16"/>
       <use xlink:href="#DejaVuSans-16" transform="translate(63.625 0)"/>
      </g>
     </g>
    </g>
    <g id="ytick_4">
     <g id="line2d_25">
      <path d="M 50.465625 100.887435
L 865.19952 100.887435
" clip-path="url(#p1f618138a5)" style="fill: none; stroke: #b0b0b0; stroke-opacity: 0.24; stroke-width: 0.55; stroke-linecap: square"/>
     </g>
     <g id="line2d_26">
      <g>
       <use xlink:href="#mbeb1b13f03" x="50.465625" y="100.887435" style="stroke: #000000; stroke-width: 0.8"/>
      </g>
     </g>
     <g id="text_4">
      <!-- 34 -->
      <g transform="translate(30.740625 104.686263) scale(0.1 -0.1)">
       <defs>
        <path id="DejaVuSans-17" d="M 2419 4116
L 825 1625
L 2419 1625
L 2419 4116
z
M 2253 4666
L 3047 4666
L 3047 1625
L 3713 1625
L 3713 1100
L 3047 1100
L 3047 0
L 2419 0
L 2419 1100
L 313 1100
L 313 1709
L 2253 4666
z
" transform="scale(0.015625)"/>
       </defs>
       <use xlink:href="#DejaVuSans-16"/>
       <use xlink:href="#DejaVuSans-17" transform="translate(63.625 0)"/>
      </g>
     </g>
    </g>
    <g id="ytick_5">
     <g id="line2d_27">
      <path d="M 50.465625 55.352661
L 865.19952 55.352661
" clip-path="url(#p1f618138a5)" style="fill: none; stroke: #b0b0b0; stroke-opacity: 0.24; stroke-width: 0.55; stroke-linecap: square"/>
     </g>
     <g id="line2d_28">
      <g>
       <use xlink:href="#mbeb1b13f03" x="50.465625" y="55.352661" style="stroke: #000000; stroke-width: 0.8"/>
      </g>
     </g>
     <g id="text_5">
      <!-- 35 -->
      <g transform="translate(30.740625 59.151489) scale(0.1 -0.1)">
       <defs>
        <path id="DejaVuSans-18" d="M 691 4666
L 3169 4666
L 3169 4134
L 1269 4134
L 1269 2991
Q 1406 3038 1543 3061
Q 1681 3084 1819 3084
Q 2600 3084 3056 2656
Q 3513 2228 3513 1497
Q 3513 744 3044 326
Q 2575 -91 1722 -91
Q 1428 -91 1123 -41
Q 819 9 494 109
L 494 744
Q 775 591 1075 516
Q 1375 441 1709 441
Q 2250 441 2565 725
Q 2881 1009 2881 1497
Q 2881 1984 2565 2268
Q 2250 2553 1709 2553
Q 1456 2553 1204 2497
Q 953 2441 691 2322
L 691 4666
z
" transform="scale(0.015625)"/>
       </defs>
       <use xlink:href="#DejaVuSans-16"/>
       <use xlink:href="#DejaVuSans-18" transform="translate(63.625 0)"/>
      </g>
     </g>
    </g>
    <g id="text_6">
     <!-- Completed QPS (k) -->
     <g transform="translate(24.338281 201.295179) rotate(-90) scale(0.1 -0.1)">
      <defs>
       <path id="DejaVuSans-26" d="M 4122 4306
L 4122 3641
Q 3803 3938 3442 4084
Q 3081 4231 2675 4231
Q 1875 4231 1450 3742
Q 1025 3253 1025 2328
Q 1025 1406 1450 917
Q 1875 428 2675 428
Q 3081 428 3442 575
Q 3803 722 4122 1019
L 4122 359
Q 3791 134 3420 21
Q 3050 -91 2638 -91
Q 1578 -91 968 557
Q 359 1206 359 2328
Q 359 3453 968 4101
Q 1578 4750 2638 4750
Q 3056 4750 3426 4639
Q 3797 4528 4122 4306
z
" transform="scale(0.015625)"/>
       <path id="DejaVuSans-52" d="M 1959 3097
Q 1497 3097 1228 2736
Q 959 2375 959 1747
Q 959 1119 1226 758
Q 1494 397 1959 397
Q 2419 397 2687 759
Q 2956 1122 2956 1747
Q 2956 2369 2687 2733
Q 2419 3097 1959 3097
z
M 1959 3584
Q 2709 3584 3137 3096
Q 3566 2609 3566 1747
Q 3566 888 3137 398
Q 2709 -91 1959 -91
Q 1206 -91 779 398
Q 353 888 353 1747
Q 353 2609 779 3096
Q 1206 3584 1959 3584
z
" transform="scale(0.015625)"/>
       <path id="DejaVuSans-50" d="M 3328 2828
Q 3544 3216 3844 3400
Q 4144 3584 4550 3584
Q 5097 3584 5394 3201
Q 5691 2819 5691 2113
L 5691 0
L 5113 0
L 5113 2094
Q 5113 2597 4934 2840
Q 4756 3084 4391 3084
Q 3944 3084 3684 2787
Q 3425 2491 3425 1978
L 3425 0
L 2847 0
L 2847 2094
Q 2847 2600 2669 2842
Q 2491 3084 2119 3084
Q 1678 3084 1418 2786
Q 1159 2488 1159 1978
L 1159 0
L 581 0
L 581 3500
L 1159 3500
L 1159 2956
Q 1356 3278 1631 3431
Q 1906 3584 2284 3584
Q 2666 3584 2933 3390
Q 3200 3197 3328 2828
z
" transform="scale(0.015625)"/>
       <path id="DejaVuSans-53" d="M 1159 525
L 1159 -1331
L 581 -1331
L 581 3500
L 1159 3500
L 1159 2969
Q 1341 3281 1617 3432
Q 1894 3584 2278 3584
Q 2916 3584 3314 3078
Q 3713 2572 3713 1747
Q 3713 922 3314 415
Q 2916 -91 2278 -91
Q 1894 -91 1617 61
Q 1341 213 1159 525
z
M 3116 1747
Q 3116 2381 2855 2742
Q 2594 3103 2138 3103
Q 1681 3103 1420 2742
Q 1159 2381 1159 1747
Q 1159 1113 1420 752
Q 1681 391 2138 391
Q 2594 391 2855 752
Q 3116 1113 3116 1747
z
" transform="scale(0.015625)"/>
       <path id="DejaVuSans-4f" d="M 603 4863
L 1178 4863
L 1178 0
L 603 0
L 603 4863
z
" transform="scale(0.015625)"/>
       <path id="DejaVuSans-48" d="M 3597 1894
L 3597 1613
L 953 1613
Q 991 1019 1311 708
Q 1631 397 2203 397
Q 2534 397 2845 478
Q 3156 559 3463 722
L 3463 178
Q 3153 47 2828 -22
Q 2503 -91 2169 -91
Q 1331 -91 842 396
Q 353 884 353 1716
Q 353 2575 817 3079
Q 1281 3584 2069 3584
Q 2775 3584 3186 3129
Q 3597 2675 3597 1894
z
M 3022 2063
Q 3016 2534 2758 2815
Q 2500 3097 2075 3097
Q 1594 3097 1305 2825
Q 1016 2553 972 2059
L 3022 2063
z
" transform="scale(0.015625)"/>
       <path id="DejaVuSans-57" d="M 1172 4494
L 1172 3500
L 2356 3500
L 2356 3053
L 1172 3053
L 1172 1153
Q 1172 725 1289 603
Q 1406 481 1766 481
L 2356 481
L 2356 0
L 1766 0
Q 1100 0 847 248
Q 594 497 594 1153
L 594 3053
L 172 3053
L 172 3500
L 594 3500
L 594 4494
L 1172 4494
z
" transform="scale(0.015625)"/>
       <path id="DejaVuSans-47" d="M 2906 2969
L 2906 4863
L 3481 4863
L 3481 0
L 2906 0
L 2906 525
Q 2725 213 2448 61
Q 2172 -91 1784 -91
Q 1150 -91 751 415
Q 353 922 353 1747
Q 353 2572 751 3078
Q 1150 3584 1784 3584
Q 2172 3584 2448 3432
Q 2725 3281 2906 2969
z
M 947 1747
Q 947 1113 1208 752
Q 1469 391 1925 391
Q 2381 391 2643 752
Q 2906 1113 2906 1747
Q 2906 2381 2643 2742
Q 2381 3103 1925 3103
Q 1469 3103 1208 2742
Q 947 2381 947 1747
z
" transform="scale(0.015625)"/>
       <path id="DejaVuSans-3" transform="scale(0.015625)"/>
       <path id="DejaVuSans-34" d="M 2522 4238
Q 1834 4238 1429 3725
Q 1025 3213 1025 2328
Q 1025 1447 1429 934
Q 1834 422 2522 422
Q 3209 422 3611 934
Q 4013 1447 4013 2328
Q 4013 3213 3611 3725
Q 3209 4238 2522 4238
z
M 3406 84
L 4238 -825
L 3475 -825
L 2784 -78
Q 2681 -84 2626 -87
Q 2572 -91 2522 -91
Q 1538 -91 948 567
Q 359 1225 359 2328
Q 359 3434 948 4092
Q 1538 4750 2522 4750
Q 3503 4750 4090 4092
Q 4678 3434 4678 2328
Q 4678 1516 4351 937
Q 4025 359 3406 84
z
" transform="scale(0.015625)"/>
       <path id="DejaVuSans-33" d="M 1259 4147
L 1259 2394
L 2053 2394
Q 2494 2394 2734 2622
Q 2975 2850 2975 3272
Q 2975 3691 2734 3919
Q 2494 4147 2053 4147
L 1259 4147
z
M 628 4666
L 2053 4666
Q 2838 4666 3239 4311
Q 3641 3956 3641 3272
Q 3641 2581 3239 2228
Q 2838 1875 2053 1875
L 1259 1875
L 1259 0
L 628 0
L 628 4666
z
" transform="scale(0.015625)"/>
       <path id="DejaVuSans-36" d="M 3425 4513
L 3425 3897
Q 3066 4069 2747 4153
Q 2428 4238 2131 4238
Q 1616 4238 1336 4038
Q 1056 3838 1056 3469
Q 1056 3159 1242 3001
Q 1428 2844 1947 2747
L 2328 2669
Q 3034 2534 3370 2195
Q 3706 1856 3706 1288
Q 3706 609 3251 259
Q 2797 -91 1919 -91
Q 1588 -91 1214 -16
Q 841 59 441 206
L 441 856
Q 825 641 1194 531
Q 1563 422 1919 422
Q 2459 422 2753 634
Q 3047 847 3047 1241
Q 3047 1584 2836 1778
Q 2625 1972 2144 2069
L 1759 2144
Q 1053 2284 737 2584
Q 422 2884 422 3419
Q 422 4038 858 4394
Q 1294 4750 2059 4750
Q 2388 4750 2728 4690
Q 3069 4631 3425 4513
z
" transform="scale(0.015625)"/>
       <path id="DejaVuSans-b" d="M 1984 4856
Q 1566 4138 1362 3434
Q 1159 2731 1159 2009
Q 1159 1288 1364 580
Q 1569 -128 1984 -844
L 1484 -844
Q 1016 -109 783 600
Q 550 1309 550 2009
Q 550 2706 781 3412
Q 1013 4119 1484 4856
L 1984 4856
z
" transform="scale(0.015625)"/>
       <path id="DejaVuSans-4e" d="M 581 4863
L 1159 4863
L 1159 1991
L 2875 3500
L 3609 3500
L 1753 1863
L 3688 0
L 2938 0
L 1159 1709
L 1159 0
L 581 0
L 581 4863
z
" transform="scale(0.015625)"/>
       <path id="DejaVuSans-c" d="M 513 4856
L 1013 4856
Q 1481 4119 1714 3412
Q 1947 2706 1947 2009
Q 1947 1309 1714 600
Q 1481 -109 1013 -844
L 513 -844
Q 928 -128 1133 580
Q 1338 1288 1338 2009
Q 1338 2731 1133 3434
Q 928 4138 513 4856
z
" transform="scale(0.015625)"/>
      </defs>
      <use xlink:href="#DejaVuSans-26"/>
      <use xlink:href="#DejaVuSans-52" transform="translate(69.828125 0)"/>
      <use xlink:href="#DejaVuSans-50" transform="translate(131.015625 0)"/>
      <use xlink:href="#DejaVuSans-53" transform="translate(228.421875 0)"/>
      <use xlink:href="#DejaVuSans-4f" transform="translate(291.90625 0)"/>
      <use xlink:href="#DejaVuSans-48" transform="translate(319.6875 0)"/>
      <use xlink:href="#DejaVuSans-57" transform="translate(381.21875 0)"/>
      <use xlink:href="#DejaVuSans-48" transform="translate(420.421875 0)"/>
      <use xlink:href="#DejaVuSans-47" transform="translate(481.953125 0)"/>
      <use xlink:href="#DejaVuSans-3" transform="translate(545.4375 0)"/>
      <use xlink:href="#DejaVuSans-34" transform="translate(577.21875 0)"/>
      <use xlink:href="#DejaVuSans-33" transform="translate(655.9375 0)"/>
      <use xlink:href="#DejaVuSans-36" transform="translate(716.234375 0)"/>
      <use xlink:href="#DejaVuSans-3" transform="translate(779.71875 0)"/>
      <use xlink:href="#DejaVuSans-b" transform="translate(811.5 0)"/>
      <use xlink:href="#DejaVuSans-4e" transform="translate(850.515625 0)"/>
      <use xlink:href="#DejaVuSans-c" transform="translate(908.421875 0)"/>
     </g>
    </g>
   </g>
   <g id="line2d_29">
    <path d="M 50.465625 55.352661
L 865.19952 55.352661
" clip-path="url(#p1f618138a5)" style="fill: none; stroke-dasharray: 4.44,1.92; stroke-dashoffset: 0; stroke: #777777; stroke-width: 1.2"/>
   </g>
   <g id="line2d_30">
    <path d="M 78.214223 52.228975
L 263.204874 52.253261
L 340.310968 52.247189
L 417.417063 52.250225
L 519.345775 52.232011
L 596.45187 52.310938
L 673.557964 52.228975
L 775.486677 52.341294
L 852.592771 255.617633
" clip-path="url(#p1f618138a5)" style="fill: none; stroke: #2f8f5b; stroke-width: 2; stroke-linecap: square"/>
    <defs>
     <path id="mf112b6cb17" d="M 0 3
C 0.795609 3 1.55874 2.683901 2.12132 2.12132
C 2.683901 1.55874 3 0.795609 3 0
C 3 -0.795609 2.683901 -1.55874 2.12132 -2.12132
C 1.55874 -2.683901 0.795609 -3 0 -3
C -0.795609 -3 -1.55874 -2.683901 -2.12132 -2.12132
C -2.683901 -1.55874 -3 -0.795609 -3 0
C -3 0.795609 -2.683901 1.55874 -2.12132 2.12132
C -1.55874 2.683901 -0.795609 3 0 3
z
" style="stroke: #2f8f5b"/>
    </defs>
    <g clip-path="url(#p1f618138a5)">
     <use xlink:href="#mf112b6cb17" x="78.214223" y="52.228975" style="fill: #2f8f5b; stroke: #2f8f5b"/>
     <use xlink:href="#mf112b6cb17" x="263.204874" y="52.253261" style="fill: #2f8f5b; stroke: #2f8f5b"/>
     <use xlink:href="#mf112b6cb17" x="340.310968" y="52.247189" style="fill: #2f8f5b; stroke: #2f8f5b"/>
     <use xlink:href="#mf112b6cb17" x="417.417063" y="52.250225" style="fill: #2f8f5b; stroke: #2f8f5b"/>
     <use xlink:href="#mf112b6cb17" x="519.345775" y="52.232011" style="fill: #2f8f5b; stroke: #2f8f5b"/>
     <use xlink:href="#mf112b6cb17" x="596.45187" y="52.310938" style="fill: #2f8f5b; stroke: #2f8f5b"/>
     <use xlink:href="#mf112b6cb17" x="673.557964" y="52.228975" style="fill: #2f8f5b; stroke: #2f8f5b"/>
     <use xlink:href="#mf112b6cb17" x="775.486677" y="52.341294" style="fill: #2f8f5b; stroke: #2f8f5b"/>
     <use xlink:href="#mf112b6cb17" x="852.592771" y="255.617633" style="fill: #2f8f5b; stroke: #2f8f5b"/>
    </g>
   </g>
   <g id="patch_4">
    <path d="M 50.465625 265.787065
L 50.465625 42.059542
" style="fill: none; stroke: #000000; stroke-width: 0.8; stroke-linejoin: miter; stroke-linecap: square"/>
   </g>
   <g id="patch_5">
    <path d="M 50.465625 265.787065
L 865.19952 265.787065
" style="fill: none; stroke: #000000; stroke-width: 0.8; stroke-linejoin: miter; stroke-linecap: square"/>
   </g>
   <g id="legend_1">
    <g id="line2d_31">
     <path d="M 59.465625 235.88394
L 69.465625 235.88394
L 79.465625 235.88394
" style="fill: none; stroke-dasharray: 4.44,1.92; stroke-dashoffset: 0; stroke: #777777; stroke-width: 1.2"/>
    </g>
    <g id="text_7">
     <!-- Configured target: 35k -->
     <g transform="translate(87.465625 239.38394) scale(0.1 -0.1)">
      <defs>
       <path id="DejaVuSans-51" d="M 3513 2113
L 3513 0
L 2938 0
L 2938 2094
Q 2938 2591 2744 2837
Q 2550 3084 2163 3084
Q 1697 3084 1428 2787
Q 1159 2491 1159 1978
L 1159 0
L 581 0
L 581 3500
L 1159 3500
L 1159 2956
Q 1366 3272 1645 3428
Q 1925 3584 2291 3584
Q 2894 3584 3203 3211
Q 3513 2838 3513 2113
z
" transform="scale(0.015625)"/>
       <path id="DejaVuSans-13af" d="M 3431 3500
L 3431 0
L 2853 0
L 2853 3053
L 1275 3053
L 1275 0
L 697 0
L 697 3053
L 147 3053
L 147 3500
L 697 3500
L 697 3744
Q 697 4316 967 4589
Q 1238 4863 1797 4863
L 2375 4863
L 2375 4384
L 1825 4384
Q 1516 4384 1395 4259
Q 1275 4134 1275 3809
L 1275 3500
L 3431 3500
z
M 2853 4856
L 3431 4856
L 3431 4128
L 2853 4128
L 2853 4856
z
" transform="scale(0.015625)"/>
       <path id="DejaVuSans-4a" d="M 2906 1791
Q 2906 2416 2648 2759
Q 2391 3103 1925 3103
Q 1463 3103 1205 2759
Q 947 2416 947 1791
Q 947 1169 1205 825
Q 1463 481 1925 481
Q 2391 481 2648 825
Q 2906 1169 2906 1791
z
M 3481 434
Q 3481 -459 3084 -895
Q 2688 -1331 1869 -1331
Q 1566 -1331 1297 -1286
Q 1028 -1241 775 -1147
L 775 -588
Q 1028 -725 1275 -790
Q 1522 -856 1778 -856
Q 2344 -856 2625 -561
Q 2906 -266 2906 331
L 2906 616
Q 2728 306 2450 153
Q 2172 0 1784 0
Q 1141 0 747 490
Q 353 981 353 1791
Q 353 2603 747 3093
Q 1141 3584 1784 3584
Q 2172 3584 2450 3431
Q 2728 3278 2906 2969
L 2906 3500
L 3481 3500
L 3481 434
z
" transform="scale(0.015625)"/>
       <path id="DejaVuSans-58" d="M 544 1381
L 544 3500
L 1119 3500
L 1119 1403
Q 1119 906 1312 657
Q 1506 409 1894 409
Q 2359 409 2629 706
Q 2900 1003 2900 1516
L 2900 3500
L 3475 3500
L 3475 0
L 2900 0
L 2900 538
Q 2691 219 2414 64
Q 2138 -91 1772 -91
Q 1169 -91 856 284
Q 544 659 544 1381
z
M 1991 3584
L 1991 3584
z
" transform="scale(0.015625)"/>
       <path id="DejaVuSans-55" d="M 2631 2963
Q 2534 3019 2420 3045
Q 2306 3072 2169 3072
Q 1681 3072 1420 2755
Q 1159 2438 1159 1844
L 1159 0
L 581 0
L 581 3500
L 1159 3500
L 1159 2956
Q 1341 3275 1631 3429
Q 1922 3584 2338 3584
Q 2397 3584 2469 3576
Q 2541 3569 2628 3553
L 2631 2963
z
" transform="scale(0.015625)"/>
       <path id="DejaVuSans-44" d="M 2194 1759
Q 1497 1759 1228 1600
Q 959 1441 959 1056
Q 959 750 1161 570
Q 1363 391 1709 391
Q 2188 391 2477 730
Q 2766 1069 2766 1631
L 2766 1759
L 2194 1759
z
M 3341 1997
L 3341 0
L 2766 0
L 2766 531
Q 2569 213 2275 61
Q 1981 -91 1556 -91
Q 1019 -91 701 211
Q 384 513 384 1019
Q 384 1609 779 1909
Q 1175 2209 1959 2209
L 2766 2209
L 2766 2266
Q 2766 2663 2505 2880
Q 2244 3097 1772 3097
Q 1472 3097 1187 3025
Q 903 2953 641 2809
L 641 3341
Q 956 3463 1253 3523
Q 1550 3584 1831 3584
Q 2591 3584 2966 3190
Q 3341 2797 3341 1997
z
" transform="scale(0.015625)"/>
       <path id="DejaVuSans-1d" d="M 750 794
L 1409 794
L 1409 0
L 750 0
L 750 794
z
M 750 3309
L 1409 3309
L 1409 2516
L 750 2516
L 750 3309
z
" transform="scale(0.015625)"/>
      </defs>
      <use xlink:href="#DejaVuSans-26"/>
      <use xlink:href="#DejaVuSans-52" transform="translate(69.828125 0)"/>
      <use xlink:href="#DejaVuSans-51" transform="translate(131.015625 0)"/>
      <use xlink:href="#DejaVuSans-13af" transform="translate(194.390625 0)"/>
      <use xlink:href="#DejaVuSans-4a" transform="translate(257.375 0)"/>
      <use xlink:href="#DejaVuSans-58" transform="translate(320.859375 0)"/>
      <use xlink:href="#DejaVuSans-55" transform="translate(384.234375 0)"/>
      <use xlink:href="#DejaVuSans-48" transform="translate(423.140625 0)"/>
      <use xlink:href="#DejaVuSans-47" transform="translate(484.671875 0)"/>
      <use xlink:href="#DejaVuSans-3" transform="translate(548.15625 0)"/>
      <use xlink:href="#DejaVuSans-57" transform="translate(579.9375 0)"/>
      <use xlink:href="#DejaVuSans-44" transform="translate(619.140625 0)"/>
      <use xlink:href="#DejaVuSans-55" transform="translate(680.421875 0)"/>
      <use xlink:href="#DejaVuSans-4a" transform="translate(719.78125 0)"/>
      <use xlink:href="#DejaVuSans-48" transform="translate(783.265625 0)"/>
      <use xlink:href="#DejaVuSans-57" transform="translate(844.796875 0)"/>
      <use xlink:href="#DejaVuSans-1d" transform="translate(884 0)"/>
      <use xlink:href="#DejaVuSans-3" transform="translate(917.6875 0)"/>
      <use xlink:href="#DejaVuSans-16" transform="translate(949.46875 0)"/>
      <use xlink:href="#DejaVuSans-18" transform="translate(1013.09375 0)"/>
      <use xlink:href="#DejaVuSans-4e" transform="translate(1076.71875 0)"/>
     </g>
    </g>
    <g id="line2d_32">
     <path d="M 59.465625 250.884722
L 69.465625 250.884722
L 79.465625 250.884722
" style="fill: none; stroke: #2f8f5b; stroke-width: 2; stroke-linecap: square"/>
     <g>
      <use xlink:href="#mf112b6cb17" x="69.465625" y="250.884722" style="fill: #2f8f5b; stroke: #2f8f5b"/>
     </g>
    </g>
    <g id="text_8">
     <!-- Completed QPS -->
     <g transform="translate(87.465625 254.384722) scale(0.1 -0.1)">
      <use xlink:href="#DejaVuSans-26"/>
      <use xlink:href="#DejaVuSans-52" transform="translate(69.828125 0)"/>
      <use xlink:href="#DejaVuSans-50" transform="translate(131.015625 0)"/>
      <use xlink:href="#DejaVuSans-53" transform="translate(228.421875 0)"/>
      <use xlink:href="#DejaVuSans-4f" transform="translate(291.90625 0)"/>
      <use xlink:href="#DejaVuSans-48" transform="translate(319.6875 0)"/>
      <use xlink:href="#DejaVuSans-57" transform="translate(381.21875 0)"/>
      <use xlink:href="#DejaVuSans-48" transform="translate(420.421875 0)"/>
      <use xlink:href="#DejaVuSans-47" transform="translate(481.953125 0)"/>
      <use xlink:href="#DejaVuSans-3" transform="translate(545.4375 0)"/>
      <use xlink:href="#DejaVuSans-34" transform="translate(577.21875 0)"/>
      <use xlink:href="#DejaVuSans-33" transform="translate(655.9375 0)"/>
      <use xlink:href="#DejaVuSans-36" transform="translate(716.234375 0)"/>
     </g>
    </g>
   </g>
  </g>
  <g id="axes_2">
   <g id="patch_6">
    <path d="M 50.465625 476.642316
L 865.19952 476.642316
L 865.19952 275.287545
L 50.465625 275.287545
z
" style="fill: #ffffff"/>
   </g>
   <g id="patch_7">
    <path d="M 673.557964 476.642316
L 775.486677 476.642316
L 775.486677 275.287545
L 673.557964 275.287545
z
" clip-path="url(#p2496a8549c)" style="fill: #e5a54b; opacity: 0.14; stroke: #e5a54b; stroke-linejoin: miter"/>
   </g>
   <g id="patch_8">
    <path d="M 61.565064 476.642316
L 94.863381 476.642316
L 94.863381 476.642316
L 61.565064 476.642316
z
" clip-path="url(#p2496a8549c)" style="fill: #a74747; opacity: 0.78"/>
   </g>
   <g id="patch_9">
    <path d="M 246.555715 476.642316
L 272.791331 476.642316
L 272.791331 476.642316
L 246.555715 476.642316
z
" clip-path="url(#p2496a8549c)" style="fill: #a74747; opacity: 0.78"/>
   </g>
   <g id="patch_10">
    <path d="M 332.238162 476.642316
L 347.837356 476.642316
L 347.837356 476.642316
L 332.238162 476.642316
z
" clip-path="url(#p2496a8549c)" style="fill: #a74747; opacity: 0.78"/>
   </g>
   <g id="patch_11">
    <path d="M 409.344257 476.642316
L 424.94345 476.642316
L 424.94345 476.642316
L 409.344257 476.642316
z
" clip-path="url(#p2496a8549c)" style="fill: #a74747; opacity: 0.78"/>
   </g>
   <g id="patch_12">
    <path d="M 511.272969 476.642316
L 526.872163 476.642316
L 526.872163 476.642316
L 511.272969 476.642316
z
" clip-path="url(#p2496a8549c)" style="fill: #a74747; opacity: 0.78"/>
   </g>
   <g id="patch_13">
    <path d="M 588.379064 476.642316
L 603.978257 476.642316
L 603.978257 476.642316
L 588.379064 476.642316
z
" clip-path="url(#p2496a8549c)" style="fill: #a74747; opacity: 0.78"/>
   </g>
   <g id="patch_14">
    <path d="M 665.485158 476.642316
L 681.084352 476.642316
L 681.084352 476.642316
L 665.485158 476.642316
z
" clip-path="url(#p2496a8549c)" style="fill: #a74747; opacity: 0.78"/>
   </g>
   <g id="patch_15">
    <path d="M 767.413871 476.642316
L 783.013064 476.642316
L 783.013064 476.565759
L 767.413871 476.565759
z
" clip-path="url(#p2496a8549c)" style="fill: #a74747; opacity: 0.78"/>
   </g>
   <g id="patch_16">
    <path d="M 844.519965 476.642316
L 860.119159 476.642316
L 860.119159 311.196517
L 844.519965 311.196517
z
" clip-path="url(#p2496a8549c)" style="fill: #a74747; opacity: 0.78"/>
   </g>
   <g id="matplotlib.axis_3">
    <g id="xtick_10">
     <g id="line2d_33">
      <path d="M 78.214223 476.642316
L 78.214223 275.287545
" clip-path="url(#p2496a8549c)" style="fill: none; stroke: #b0b0b0; stroke-opacity: 0.24; stroke-width: 0.55; stroke-linecap: square"/>
     </g>
     <g id="line2d_34">
      <g>
       <use xlink:href="#m959cabaffe" x="78.214223" y="476.642316" style="stroke: #000000; stroke-width: 0.8"/>
      </g>
     </g>
    </g>
    <g id="xtick_11">
     <g id="line2d_35">
      <path d="M 263.204874 476.642316
L 263.204874 275.287545
" clip-path="url(#p2496a8549c)" style="fill: none; stroke: #b0b0b0; stroke-opacity: 0.24; stroke-width: 0.55; stroke-linecap: square"/>
     </g>
     <g id="line2d_36">
      <g>
       <use xlink:href="#m959cabaffe" x="263.204874" y="476.642316" style="stroke: #000000; stroke-width: 0.8"/>
      </g>
     </g>
    </g>
    <g id="xtick_12">
     <g id="line2d_37">
      <path d="M 340.310968 476.642316
L 340.310968 275.287545
" clip-path="url(#p2496a8549c)" style="fill: none; stroke: #b0b0b0; stroke-opacity: 0.24; stroke-width: 0.55; stroke-linecap: square"/>
     </g>
     <g id="line2d_38">
      <g>
       <use xlink:href="#m959cabaffe" x="340.310968" y="476.642316" style="stroke: #000000; stroke-width: 0.8"/>
      </g>
     </g>
    </g>
    <g id="xtick_13">
     <g id="line2d_39">
      <path d="M 417.417063 476.642316
L 417.417063 275.287545
" clip-path="url(#p2496a8549c)" style="fill: none; stroke: #b0b0b0; stroke-opacity: 0.24; stroke-width: 0.55; stroke-linecap: square"/>
     </g>
     <g id="line2d_40">
      <g>
       <use xlink:href="#m959cabaffe" x="417.417063" y="476.642316" style="stroke: #000000; stroke-width: 0.8"/>
      </g>
     </g>
    </g>
    <g id="xtick_14">
     <g id="line2d_41">
      <path d="M 519.345775 476.642316
L 519.345775 275.287545
" clip-path="url(#p2496a8549c)" style="fill: none; stroke: #b0b0b0; stroke-opacity: 0.24; stroke-width: 0.55; stroke-linecap: square"/>
     </g>
     <g id="line2d_42">
      <g>
       <use xlink:href="#m959cabaffe" x="519.345775" y="476.642316" style="stroke: #000000; stroke-width: 0.8"/>
      </g>
     </g>
    </g>
    <g id="xtick_15">
     <g id="line2d_43">
      <path d="M 596.45187 476.642316
L 596.45187 275.287545
" clip-path="url(#p2496a8549c)" style="fill: none; stroke: #b0b0b0; stroke-opacity: 0.24; stroke-width: 0.55; stroke-linecap: square"/>
     </g>
     <g id="line2d_44">
      <g>
       <use xlink:href="#m959cabaffe" x="596.45187" y="476.642316" style="stroke: #000000; stroke-width: 0.8"/>
      </g>
     </g>
    </g>
    <g id="xtick_16">
     <g id="line2d_45">
      <path d="M 673.557964 476.642316
L 673.557964 275.287545
" clip-path="url(#p2496a8549c)" style="fill: none; stroke: #b0b0b0; stroke-opacity: 0.24; stroke-width: 0.55; stroke-linecap: square"/>
     </g>
     <g id="line2d_46">
      <g>
       <use xlink:href="#m959cabaffe" x="673.557964" y="476.642316" style="stroke: #000000; stroke-width: 0.8"/>
      </g>
     </g>
    </g>
    <g id="xtick_17">
     <g id="line2d_47">
      <path d="M 775.486677 476.642316
L 775.486677 275.287545
" clip-path="url(#p2496a8549c)" style="fill: none; stroke: #b0b0b0; stroke-opacity: 0.24; stroke-width: 0.55; stroke-linecap: square"/>
     </g>
     <g id="line2d_48">
      <g>
       <use xlink:href="#m959cabaffe" x="775.486677" y="476.642316" style="stroke: #000000; stroke-width: 0.8"/>
      </g>
     </g>
    </g>
    <g id="xtick_18">
     <g id="line2d_49">
      <path d="M 852.592771 476.642316
L 852.592771 275.287545
" clip-path="url(#p2496a8549c)" style="fill: none; stroke: #b0b0b0; stroke-opacity: 0.24; stroke-width: 0.55; stroke-linecap: square"/>
     </g>
     <g id="line2d_50">
      <g>
       <use xlink:href="#m959cabaffe" x="852.592771" y="476.642316" style="stroke: #000000; stroke-width: 0.8"/>
      </g>
     </g>
    </g>
   </g>
   <g id="matplotlib.axis_4">
    <g id="ytick_6">
     <g id="line2d_51">
      <path d="M 50.465625 476.642316
L 865.19952 476.642316
" clip-path="url(#p2496a8549c)" style="fill: none; stroke: #b0b0b0; stroke-opacity: 0.24; stroke-width: 0.55; stroke-linecap: square"/>
     </g>
     <g id="line2d_52">
      <g>
       <use xlink:href="#mbeb1b13f03" x="50.465625" y="476.642316" style="stroke: #000000; stroke-width: 0.8"/>
      </g>
     </g>
     <g id="text_9">
      <!-- 0 -->
      <g transform="translate(37.103125 480.441144) scale(0.1 -0.1)">
       <defs>
        <path id="DejaVuSans-13" d="M 2034 4250
Q 1547 4250 1301 3770
Q 1056 3291 1056 2328
Q 1056 1369 1301 889
Q 1547 409 2034 409
Q 2525 409 2770 889
Q 3016 1369 3016 2328
Q 3016 3291 2770 3770
Q 2525 4250 2034 4250
z
M 2034 4750
Q 2819 4750 3233 4129
Q 3647 3509 3647 2328
Q 3647 1150 3233 529
Q 2819 -91 2034 -91
Q 1250 -91 836 529
Q 422 1150 422 2328
Q 422 3509 836 4129
Q 1250 4750 2034 4750
z
" transform="scale(0.015625)"/>
       </defs>
       <use xlink:href="#DejaVuSans-13"/>
      </g>
     </g>
    </g>
    <g id="ytick_7">
     <g id="line2d_53">
      <path d="M 50.465625 450.661055
L 865.19952 450.661055
" clip-path="url(#p2496a8549c)" style="fill: none; stroke: #b0b0b0; stroke-opacity: 0.24; stroke-width: 0.55; stroke-linecap: square"/>
     </g>
     <g id="line2d_54">
      <g>
       <use xlink:href="#mbeb1b13f03" x="50.465625" y="450.661055" style="stroke: #000000; stroke-width: 0.8"/>
      </g>
     </g>
     <g id="text_10">
      <!-- 2 -->
      <g transform="translate(37.103125 454.459884) scale(0.1 -0.1)">
       <use xlink:href="#DejaVuSans-15"/>
      </g>
     </g>
    </g>
    <g id="ytick_8">
     <g id="line2d_55">
      <path d="M 50.465625 424.679795
L 865.19952 424.679795
" clip-path="url(#p2496a8549c)" style="fill: none; stroke: #b0b0b0; stroke-opacity: 0.24; stroke-width: 0.55; stroke-linecap: square"/>
     </g>
     <g id="line2d_56">
      <g>
       <use xlink:href="#mbeb1b13f03" x="50.465625" y="424.679795" style="stroke: #000000; stroke-width: 0.8"/>
      </g>
     </g>
     <g id="text_11">
      <!-- 4 -->
      <g transform="translate(37.103125 428.478623) scale(0.1 -0.1)">
       <use xlink:href="#DejaVuSans-17"/>
      </g>
     </g>
    </g>
    <g id="ytick_9">
     <g id="line2d_57">
      <path d="M 50.465625 398.698534
L 865.19952 398.698534
" clip-path="url(#p2496a8549c)" style="fill: none; stroke: #b0b0b0; stroke-opacity: 0.24; stroke-width: 0.55; stroke-linecap: square"/>
     </g>
     <g id="line2d_58">
      <g>
       <use xlink:href="#mbeb1b13f03" x="50.465625" y="398.698534" style="stroke: #000000; stroke-width: 0.8"/>
      </g>
     </g>
     <g id="text_12">
      <!-- 6 -->
      <g transform="translate(37.103125 402.497362) scale(0.1 -0.1)">
       <defs>
        <path id="DejaVuSans-19" d="M 2113 2584
Q 1688 2584 1439 2293
Q 1191 2003 1191 1497
Q 1191 994 1439 701
Q 1688 409 2113 409
Q 2538 409 2786 701
Q 3034 994 3034 1497
Q 3034 2003 2786 2293
Q 2538 2584 2113 2584
z
M 3366 4563
L 3366 3988
Q 3128 4100 2886 4159
Q 2644 4219 2406 4219
Q 1781 4219 1451 3797
Q 1122 3375 1075 2522
Q 1259 2794 1537 2939
Q 1816 3084 2150 3084
Q 2853 3084 3261 2657
Q 3669 2231 3669 1497
Q 3669 778 3244 343
Q 2819 -91 2113 -91
Q 1303 -91 875 529
Q 447 1150 447 2328
Q 447 3434 972 4092
Q 1497 4750 2381 4750
Q 2619 4750 2861 4703
Q 3103 4656 3366 4563
z
" transform="scale(0.015625)"/>
       </defs>
       <use xlink:href="#DejaVuSans-19"/>
      </g>
     </g>
    </g>
    <g id="ytick_10">
     <g id="line2d_59">
      <path d="M 50.465625 372.717273
L 865.19952 372.717273
" clip-path="url(#p2496a8549c)" style="fill: none; stroke: #b0b0b0; stroke-opacity: 0.24; stroke-width: 0.55; stroke-linecap: square"/>
     </g>
     <g id="line2d_60">
      <g>
       <use xlink:href="#mbeb1b13f03" x="50.465625" y="372.717273" style="stroke: #000000; stroke-width: 0.8"/>
      </g>
     </g>
     <g id="text_13">
      <!-- 8 -->
      <g transform="translate(37.103125 376.516101) scale(0.1 -0.1)">
       <defs>
        <path id="DejaVuSans-1b" d="M 2034 2216
Q 1584 2216 1326 1975
Q 1069 1734 1069 1313
Q 1069 891 1326 650
Q 1584 409 2034 409
Q 2484 409 2743 651
Q 3003 894 3003 1313
Q 3003 1734 2745 1975
Q 2488 2216 2034 2216
z
M 1403 2484
Q 997 2584 770 2862
Q 544 3141 544 3541
Q 544 4100 942 4425
Q 1341 4750 2034 4750
Q 2731 4750 3128 4425
Q 3525 4100 3525 3541
Q 3525 3141 3298 2862
Q 3072 2584 2669 2484
Q 3125 2378 3379 2068
Q 3634 1759 3634 1313
Q 3634 634 3220 271
Q 2806 -91 2034 -91
Q 1263 -91 848 271
Q 434 634 434 1313
Q 434 1759 690 2068
Q 947 2378 1403 2484
z
M 1172 3481
Q 1172 3119 1398 2916
Q 1625 2713 2034 2713
Q 2441 2713 2670 2916
Q 2900 3119 2900 3481
Q 2900 3844 2670 4047
Q 2441 4250 2034 4250
Q 1625 4250 1398 4047
Q 1172 3844 1172 3481
z
" transform="scale(0.015625)"/>
       </defs>
       <use xlink:href="#DejaVuSans-1b"/>
      </g>
     </g>
    </g>
    <g id="ytick_11">
     <g id="line2d_61">
      <path d="M 50.465625 346.736013
L 865.19952 346.736013
" clip-path="url(#p2496a8549c)" style="fill: none; stroke: #b0b0b0; stroke-opacity: 0.24; stroke-width: 0.55; stroke-linecap: square"/>
     </g>
     <g id="line2d_62">
      <g>
       <use xlink:href="#mbeb1b13f03" x="50.465625" y="346.736013" style="stroke: #000000; stroke-width: 0.8"/>
      </g>
     </g>
     <g id="text_14">
      <!-- 10 -->
      <g transform="translate(30.740625 350.534841) scale(0.1 -0.1)">
       <use xlink:href="#DejaVuSans-14"/>
       <use xlink:href="#DejaVuSans-13" transform="translate(63.625 0)"/>
      </g>
     </g>
    </g>
    <g id="ytick_12">
     <g id="line2d_63">
      <path d="M 50.465625 320.754752
L 865.19952 320.754752
" clip-path="url(#p2496a8549c)" style="fill: none; stroke: #b0b0b0; stroke-opacity: 0.24; stroke-width: 0.55; stroke-linecap: square"/>
     </g>
     <g id="line2d_64">
      <g>
       <use xlink:href="#mbeb1b13f03" x="50.465625" y="320.754752" style="stroke: #000000; stroke-width: 0.8"/>
      </g>
     </g>
     <g id="text_15">
      <!-- 12 -->
      <g transform="translate(30.740625 324.55358) scale(0.1 -0.1)">
       <use xlink:href="#DejaVuSans-14"/>
       <use xlink:href="#DejaVuSans-15" transform="translate(63.625 0)"/>
      </g>
     </g>
    </g>
    <g id="ytick_13">
     <g id="line2d_65">
      <path d="M 50.465625 294.773491
L 865.19952 294.773491
" clip-path="url(#p2496a8549c)" style="fill: none; stroke: #b0b0b0; stroke-opacity: 0.24; stroke-width: 0.55; stroke-linecap: square"/>
     </g>
     <g id="line2d_66">
      <g>
       <use xlink:href="#mbeb1b13f03" x="50.465625" y="294.773491" style="stroke: #000000; stroke-width: 0.8"/>
      </g>
     </g>
     <g id="text_16">
      <!-- 14 -->
      <g transform="translate(30.740625 298.572319) scale(0.1 -0.1)">
       <use xlink:href="#DejaVuSans-14"/>
       <use xlink:href="#DejaVuSans-17" transform="translate(63.625 0)"/>
      </g>
     </g>
    </g>
    <g id="text_17">
     <!-- Client shed (%) -->
     <g transform="translate(24.338281 414.294618) rotate(-90) scale(0.1 -0.1)">
      <defs>
       <path id="DejaVuSans-4c" d="M 603 3500
L 1178 3500
L 1178 0
L 603 0
L 603 3500
z
M 603 4863
L 1178 4863
L 1178 4134
L 603 4134
L 603 4863
z
" transform="scale(0.015625)"/>
       <path id="DejaVuSans-56" d="M 2834 3397
L 2834 2853
Q 2591 2978 2328 3040
Q 2066 3103 1784 3103
Q 1356 3103 1142 2972
Q 928 2841 928 2578
Q 928 2378 1081 2264
Q 1234 2150 1697 2047
L 1894 2003
Q 2506 1872 2764 1633
Q 3022 1394 3022 966
Q 3022 478 2636 193
Q 2250 -91 1575 -91
Q 1294 -91 989 -36
Q 684 19 347 128
L 347 722
Q 666 556 975 473
Q 1284 391 1588 391
Q 1994 391 2212 530
Q 2431 669 2431 922
Q 2431 1156 2273 1281
Q 2116 1406 1581 1522
L 1381 1569
Q 847 1681 609 1914
Q 372 2147 372 2553
Q 372 3047 722 3315
Q 1072 3584 1716 3584
Q 2034 3584 2315 3537
Q 2597 3491 2834 3397
z
" transform="scale(0.015625)"/>
       <path id="DejaVuSans-4b" d="M 3513 2113
L 3513 0
L 2938 0
L 2938 2094
Q 2938 2591 2744 2837
Q 2550 3084 2163 3084
Q 1697 3084 1428 2787
Q 1159 2491 1159 1978
L 1159 0
L 581 0
L 581 4863
L 1159 4863
L 1159 2956
Q 1366 3272 1645 3428
Q 1925 3584 2291 3584
Q 2894 3584 3203 3211
Q 3513 2838 3513 2113
z
" transform="scale(0.015625)"/>
       <path id="DejaVuSans-8" d="M 4653 2053
Q 4381 2053 4226 1822
Q 4072 1591 4072 1178
Q 4072 772 4226 539
Q 4381 306 4653 306
Q 4919 306 5073 539
Q 5228 772 5228 1178
Q 5228 1588 5073 1820
Q 4919 2053 4653 2053
z
M 4653 2450
Q 5147 2450 5437 2106
Q 5728 1763 5728 1178
Q 5728 594 5436 251
Q 5144 -91 4653 -91
Q 4153 -91 3862 251
Q 3572 594 3572 1178
Q 3572 1766 3864 2108
Q 4156 2450 4653 2450
z
M 1428 4353
Q 1159 4353 1004 4120
Q 850 3888 850 3481
Q 850 3069 1003 2837
Q 1156 2606 1428 2606
Q 1700 2606 1854 2837
Q 2009 3069 2009 3481
Q 2009 3884 1853 4118
Q 1697 4353 1428 4353
z
M 4250 4750
L 4750 4750
L 1831 -91
L 1331 -91
L 4250 4750
z
M 1428 4750
Q 1922 4750 2215 4408
Q 2509 4066 2509 3481
Q 2509 2891 2217 2550
Q 1925 2209 1428 2209
Q 931 2209 642 2551
Q 353 2894 353 3481
Q 353 4063 643 4406
Q 934 4750 1428 4750
z
" transform="scale(0.015625)"/>
      </defs>
      <use xlink:href="#DejaVuSans-26"/>
      <use xlink:href="#DejaVuSans-4f" transform="translate(69.828125 0)"/>
      <use xlink:href="#DejaVuSans-4c" transform="translate(97.609375 0)"/>
      <use xlink:href="#DejaVuSans-48" transform="translate(125.390625 0)"/>
      <use xlink:href="#DejaVuSans-51" transform="translate(186.921875 0)"/>
      <use xlink:href="#DejaVuSans-57" transform="translate(250.296875 0)"/>
      <use xlink:href="#DejaVuSans-3" transform="translate(289.5 0)"/>
      <use xlink:href="#DejaVuSans-56" transform="translate(321.28125 0)"/>
      <use xlink:href="#DejaVuSans-4b" transform="translate(373.375 0)"/>
      <use xlink:href="#DejaVuSans-48" transform="translate(436.75 0)"/>
      <use xlink:href="#DejaVuSans-47" transform="translate(498.28125 0)"/>
      <use xlink:href="#DejaVuSans-3" transform="translate(561.765625 0)"/>
      <use xlink:href="#DejaVuSans-b" transform="translate(593.546875 0)"/>
      <use xlink:href="#DejaVuSans-8" transform="translate(632.5625 0)"/>
      <use xlink:href="#DejaVuSans-c" transform="translate(727.578125 0)"/>
     </g>
    </g>
   </g>
   <g id="patch_17">
    <path d="M 50.465625 476.642316
L 50.465625 275.287545
" style="fill: none; stroke: #000000; stroke-width: 0.8; stroke-linejoin: miter; stroke-linecap: square"/>
   </g>
   <g id="patch_18">
    <path d="M 50.465625 476.642316
L 865.19952 476.642316
" style="fill: none; stroke: #000000; stroke-width: 0.8; stroke-linejoin: miter; stroke-linecap: square"/>
   </g>
   <g id="text_18">
    <!-- 12.74% shed -->
    <g style="fill: #a74747" transform="translate(781.236521 305.196517) scale(0.1 -0.1)">
     <defs>
      <path id="DejaVuSans-11" d="M 684 794
L 1344 794
L 1344 0
L 684 0
L 684 794
z
" transform="scale(0.015625)"/>
      <path id="DejaVuSans-1a" d="M 525 4666
L 3525 4666
L 3525 4397
L 1831 0
L 1172 0
L 2766 4134
L 525 4134
L 525 4666
z
" transform="scale(0.015625)"/>
     </defs>
     <use xlink:href="#DejaVuSans-14"/>
     <use xlink:href="#DejaVuSans-15" transform="translate(63.625 0)"/>
     <use xlink:href="#DejaVuSans-11" transform="translate(127.25 0)"/>
     <use xlink:href="#DejaVuSans-1a" transform="translate(159.03125 0)"/>
     <use xlink:href="#DejaVuSans-17" transform="translate(222.65625 0)"/>
     <use xlink:href="#DejaVuSans-8" transform="translate(286.28125 0)"/>
     <use xlink:href="#DejaVuSans-3" transform="translate(381.296875 0)"/>
     <use xlink:href="#DejaVuSans-56" transform="translate(413.078125 0)"/>
     <use xlink:href="#DejaVuSans-4b" transform="translate(465.171875 0)"/>
     <use xlink:href="#DejaVuSans-48" transform="translate(528.546875 0)"/>
     <use xlink:href="#DejaVuSans-47" transform="translate(590.078125 0)"/>
    </g>
   </g>
  </g>
  <g id="axes_3">
   <g id="patch_19">
    <path d="M 50.465625 690.198739
L 865.19952 690.198739
L 865.19952 488.843968
L 50.465625 488.843968
z
" style="fill: #ffffff"/>
   </g>
   <g id="patch_20">
    <path d="M 673.557964 690.198739
L 775.486677 690.198739
L 775.486677 488.843968
L 673.557964 488.843968
z
" clip-path="url(#pcdecb854b6)" style="fill: #e5a54b; opacity: 0.14; stroke: #e5a54b; stroke-linejoin: miter"/>
   </g>
   <g id="matplotlib.axis_5">
    <g id="xtick_19">
     <g id="line2d_67">
      <path d="M 78.214223 690.198739
L 78.214223 488.843968
" clip-path="url(#pcdecb854b6)" style="fill: none; stroke: #b0b0b0; stroke-opacity: 0.24; stroke-width: 0.55; stroke-linecap: square"/>
     </g>
     <g id="line2d_68">
      <g>
       <use xlink:href="#m959cabaffe" x="78.214223" y="690.198739" style="stroke: #000000; stroke-width: 0.8"/>
      </g>
     </g>
     <g id="text_19">
      <!-- 0x -->
      <g transform="translate(72.073598 704.796395) scale(0.1 -0.1)">
       <defs>
        <path id="DejaVuSans-5b" d="M 3513 3500
L 2247 1797
L 3578 0
L 2900 0
L 1881 1375
L 863 0
L 184 0
L 1544 1831
L 300 3500
L 978 3500
L 1906 2253
L 2834 3500
L 3513 3500
z
" transform="scale(0.015625)"/>
       </defs>
       <use xlink:href="#DejaVuSans-13"/>
       <use xlink:href="#DejaVuSans-5b" transform="translate(63.625 0)"/>
      </g>
     </g>
    </g>
    <g id="xtick_20">
     <g id="line2d_69">
      <path d="M 263.204874 690.198739
L 263.204874 488.843968
" clip-path="url(#pcdecb854b6)" style="fill: none; stroke: #b0b0b0; stroke-opacity: 0.24; stroke-width: 0.55; stroke-linecap: square"/>
     </g>
     <g id="line2d_70">
      <g>
       <use xlink:href="#m959cabaffe" x="263.204874" y="690.198739" style="stroke: #000000; stroke-width: 0.8"/>
      </g>
     </g>
     <g id="text_20">
      <!-- 1x -->
      <g transform="translate(257.064249 704.796395) scale(0.1 -0.1)">
       <use xlink:href="#DejaVuSans-14"/>
       <use xlink:href="#DejaVuSans-5b" transform="translate(63.625 0)"/>
      </g>
     </g>
    </g>
    <g id="xtick_21">
     <g id="line2d_71">
      <path d="M 340.310968 690.198739
L 340.310968 488.843968
" clip-path="url(#pcdecb854b6)" style="fill: none; stroke: #b0b0b0; stroke-opacity: 0.24; stroke-width: 0.55; stroke-linecap: square"/>
     </g>
     <g id="line2d_72">
      <g>
       <use xlink:href="#m959cabaffe" x="340.310968" y="690.198739" style="stroke: #000000; stroke-width: 0.8"/>
      </g>
     </g>
     <g id="text_21">
      <!-- 2x -->
      <g transform="translate(334.170343 704.796395) scale(0.1 -0.1)">
       <use xlink:href="#DejaVuSans-15"/>
       <use xlink:href="#DejaVuSans-5b" transform="translate(63.625 0)"/>
      </g>
     </g>
    </g>
    <g id="xtick_22">
     <g id="line2d_73">
      <path d="M 417.417063 690.198739
L 417.417063 488.843968
" clip-path="url(#pcdecb854b6)" style="fill: none; stroke: #b0b0b0; stroke-opacity: 0.24; stroke-width: 0.55; stroke-linecap: square"/>
     </g>
     <g id="line2d_74">
      <g>
       <use xlink:href="#m959cabaffe" x="417.417063" y="690.198739" style="stroke: #000000; stroke-width: 0.8"/>
      </g>
     </g>
     <g id="text_22">
      <!-- 4x -->
      <g transform="translate(411.276438 704.796395) scale(0.1 -0.1)">
       <use xlink:href="#DejaVuSans-17"/>
       <use xlink:href="#DejaVuSans-5b" transform="translate(63.625 0)"/>
      </g>
     </g>
    </g>
    <g id="xtick_23">
     <g id="line2d_75">
      <path d="M 519.345775 690.198739
L 519.345775 488.843968
" clip-path="url(#pcdecb854b6)" style="fill: none; stroke: #b0b0b0; stroke-opacity: 0.24; stroke-width: 0.55; stroke-linecap: square"/>
     </g>
     <g id="line2d_76">
      <g>
       <use xlink:href="#m959cabaffe" x="519.345775" y="690.198739" style="stroke: #000000; stroke-width: 0.8"/>
      </g>
     </g>
     <g id="text_23">
      <!-- 10x -->
      <g transform="translate(510.0239 704.796395) scale(0.1 -0.1)">
       <use xlink:href="#DejaVuSans-14"/>
       <use xlink:href="#DejaVuSans-13" transform="translate(63.625 0)"/>
       <use xlink:href="#DejaVuSans-5b" transform="translate(127.25 0)"/>
      </g>
     </g>
    </g>
    <g id="xtick_24">
     <g id="line2d_77">
      <path d="M 596.45187 690.198739
L 596.45187 488.843968
" clip-path="url(#pcdecb854b6)" style="fill: none; stroke: #b0b0b0; stroke-opacity: 0.24; stroke-width: 0.55; stroke-linecap: square"/>
     </g>
     <g id="line2d_78">
      <g>
       <use xlink:href="#m959cabaffe" x="596.45187" y="690.198739" style="stroke: #000000; stroke-width: 0.8"/>
      </g>
     </g>
     <g id="text_24">
      <!-- 20x -->
      <g transform="translate(587.129995 704.796395) scale(0.1 -0.1)">
       <use xlink:href="#DejaVuSans-15"/>
       <use xlink:href="#DejaVuSans-13" transform="translate(63.625 0)"/>
       <use xlink:href="#DejaVuSans-5b" transform="translate(127.25 0)"/>
      </g>
     </g>
    </g>
    <g id="xtick_25">
     <g id="line2d_79">
      <path d="M 673.557964 690.198739
L 673.557964 488.843968
" clip-path="url(#pcdecb854b6)" style="fill: none; stroke: #b0b0b0; stroke-opacity: 0.24; stroke-width: 0.55; stroke-linecap: square"/>
     </g>
     <g id="line2d_80">
      <g>
       <use xlink:href="#m959cabaffe" x="673.557964" y="690.198739" style="stroke: #000000; stroke-width: 0.8"/>
      </g>
     </g>
     <g id="text_25">
      <!-- 40x -->
      <g transform="translate(664.236089 704.796395) scale(0.1 -0.1)">
       <use xlink:href="#DejaVuSans-17"/>
       <use xlink:href="#DejaVuSans-13" transform="translate(63.625 0)"/>
       <use xlink:href="#DejaVuSans-5b" transform="translate(127.25 0)"/>
      </g>
     </g>
    </g>
    <g id="xtick_26">
     <g id="line2d_81">
      <path d="M 775.486677 690.198739
L 775.486677 488.843968
" clip-path="url(#pcdecb854b6)" style="fill: none; stroke: #b0b0b0; stroke-opacity: 0.24; stroke-width: 0.55; stroke-linecap: square"/>
     </g>
     <g id="line2d_82">
      <g>
       <use xlink:href="#m959cabaffe" x="775.486677" y="690.198739" style="stroke: #000000; stroke-width: 0.8"/>
      </g>
     </g>
     <g id="text_26">
      <!-- 100x -->
      <g transform="translate(762.983552 704.796395) scale(0.1 -0.1)">
       <use xlink:href="#DejaVuSans-14"/>
       <use xlink:href="#DejaVuSans-13" transform="translate(63.625 0)"/>
       <use xlink:href="#DejaVuSans-13" transform="translate(127.25 0)"/>
       <use xlink:href="#DejaVuSans-5b" transform="translate(190.875 0)"/>
      </g>
     </g>
    </g>
    <g id="xtick_27">
     <g id="line2d_83">
      <path d="M 852.592771 690.198739
L 852.592771 488.843968
" clip-path="url(#pcdecb854b6)" style="fill: none; stroke: #b0b0b0; stroke-opacity: 0.24; stroke-width: 0.55; stroke-linecap: square"/>
     </g>
     <g id="line2d_84">
      <g>
       <use xlink:href="#m959cabaffe" x="852.592771" y="690.198739" style="stroke: #000000; stroke-width: 0.8"/>
      </g>
     </g>
     <g id="text_27">
      <!-- 200x -->
      <g transform="translate(840.089646 704.796395) scale(0.1 -0.1)">
       <use xlink:href="#DejaVuSans-15"/>
       <use xlink:href="#DejaVuSans-13" transform="translate(63.625 0)"/>
       <use xlink:href="#DejaVuSans-13" transform="translate(127.25 0)"/>
       <use xlink:href="#DejaVuSans-5b" transform="translate(190.875 0)"/>
      </g>
     </g>
    </g>
    <g id="text_28">
     <!-- Added GQM latency (1x ≈ 335 ns; symlog scale) -->
     <g transform="translate(336.522416 718.797176) scale(0.1 -0.1)">
      <defs>
       <path id="DejaVuSans-24" d="M 2188 4044
L 1331 1722
L 3047 1722
L 2188 4044
z
M 1831 4666
L 2547 4666
L 4325 0
L 3669 0
L 3244 1197
L 1141 1197
L 716 0
L 50 0
L 1831 4666
z
" transform="scale(0.015625)"/>
       <path id="DejaVuSans-2a" d="M 3809 666
L 3809 1919
L 2778 1919
L 2778 2438
L 4434 2438
L 4434 434
Q 4069 175 3628 42
Q 3188 -91 2688 -91
Q 1594 -91 976 548
Q 359 1188 359 2328
Q 359 3472 976 4111
Q 1594 4750 2688 4750
Q 3144 4750 3555 4637
Q 3966 4525 4313 4306
L 4313 3634
Q 3963 3931 3569 4081
Q 3175 4231 2741 4231
Q 1884 4231 1454 3753
Q 1025 3275 1025 2328
Q 1025 1384 1454 906
Q 1884 428 2741 428
Q 3075 428 3337 486
Q 3600 544 3809 666
z
" transform="scale(0.015625)"/>
       <path id="DejaVuSans-30" d="M 628 4666
L 1569 4666
L 2759 1491
L 3956 4666
L 4897 4666
L 4897 0
L 4281 0
L 4281 4097
L 3078 897
L 2444 897
L 1241 4097
L 1241 0
L 628 0
L 628 4666
z
" transform="scale(0.015625)"/>
       <path id="DejaVuSans-46" d="M 3122 3366
L 3122 2828
Q 2878 2963 2633 3030
Q 2388 3097 2138 3097
Q 1578 3097 1268 2742
Q 959 2388 959 1747
Q 959 1106 1268 751
Q 1578 397 2138 397
Q 2388 397 2633 464
Q 2878 531 3122 666
L 3122 134
Q 2881 22 2623 -34
Q 2366 -91 2075 -91
Q 1284 -91 818 406
Q 353 903 353 1747
Q 353 2603 823 3093
Q 1294 3584 2113 3584
Q 2378 3584 2631 3529
Q 2884 3475 3122 3366
z
" transform="scale(0.015625)"/>
       <path id="DejaVuSans-5c" d="M 2059 -325
Q 1816 -950 1584 -1140
Q 1353 -1331 966 -1331
L 506 -1331
L 506 -850
L 844 -850
Q 1081 -850 1212 -737
Q 1344 -625 1503 -206
L 1606 56
L 191 3500
L 800 3500
L 1894 763
L 2988 3500
L 3597 3500
L 2059 -325
z
" transform="scale(0.015625)"/>
       <path id="DejaVuSans-cd2" d="M 4684 1947
L 4684 1388
Q 4356 1144 4076 1036
Q 3797 928 3494 928
Q 3150 928 2694 1113
Q 2663 1125 2641 1134
Q 2622 1141 2575 1159
Q 2091 1350 1797 1350
Q 1522 1350 1253 1231
Q 984 1113 678 850
L 678 1409
Q 1006 1653 1286 1761
Q 1566 1869 1869 1869
Q 2213 1869 2672 1684
Q 2706 1669 2722 1663
Q 2741 1656 2788 1638
Q 3272 1447 3566 1447
Q 3834 1447 4098 1564
Q 4363 1681 4684 1947
z
M 4684 3163
L 4684 2606
Q 4356 2359 4076 2251
Q 3797 2144 3494 2144
Q 3150 2144 2694 2328
Q 2663 2341 2641 2350
Q 2622 2356 2575 2375
Q 2091 2566 1797 2566
Q 1522 2566 1253 2447
Q 984 2328 678 2069
L 678 2625
Q 1006 2869 1286 2976
Q 1566 3084 1869 3084
Q 2213 3084 2672 2900
Q 2703 2888 2719 2881
Q 2741 2872 2788 2853
Q 3272 2663 3566 2663
Q 3834 2663 4098 2780
Q 4363 2897 4684 3163
z
" transform="scale(0.015625)"/>
       <path id="DejaVuSans-1e" d="M 750 3309
L 1409 3309
L 1409 2516
L 750 2516
L 750 3309
z
M 750 794
L 1409 794
L 1409 256
L 897 -744
L 494 -744
L 750 256
L 750 794
z
" transform="scale(0.015625)"/>
      </defs>
      <use xlink:href="#DejaVuSans-24"/>
      <use xlink:href="#DejaVuSans-47" transform="translate(66.65625 0)"/>
      <use xlink:href="#DejaVuSans-47" transform="translate(130.140625 0)"/>
      <use xlink:href="#DejaVuSans-48" transform="translate(193.625 0)"/>
      <use xlink:href="#DejaVuSans-47" transform="translate(255.15625 0)"/>
      <use xlink:href="#DejaVuSans-3" transform="translate(318.640625 0)"/>
      <use xlink:href="#DejaVuSans-2a" transform="translate(350.421875 0)"/>
      <use xlink:href="#DejaVuSans-34" transform="translate(427.90625 0)"/>
      <use xlink:href="#DejaVuSans-30" transform="translate(506.625 0)"/>
      <use xlink:href="#DejaVuSans-3" transform="translate(592.90625 0)"/>
      <use xlink:href="#DejaVuSans-4f" transform="translate(624.6875 0)"/>
      <use xlink:href="#DejaVuSans-44" transform="translate(652.46875 0)"/>
      <use xlink:href="#DejaVuSans-57" transform="translate(713.75 0)"/>
      <use xlink:href="#DejaVuSans-48" transform="translate(752.953125 0)"/>
      <use xlink:href="#DejaVuSans-51" transform="translate(814.484375 0)"/>
      <use xlink:href="#DejaVuSans-46" transform="translate(877.859375 0)"/>
      <use xlink:href="#DejaVuSans-5c" transform="translate(932.84375 0)"/>
      <use xlink:href="#DejaVuSans-3" transform="translate(992.03125 0)"/>
      <use xlink:href="#DejaVuSans-b" transform="translate(1023.8125 0)"/>
      <use xlink:href="#DejaVuSans-14" transform="translate(1062.828125 0)"/>
      <use xlink:href="#DejaVuSans-5b" transform="translate(1126.453125 0)"/>
      <use xlink:href="#DejaVuSans-3" transform="translate(1185.640625 0)"/>
      <use xlink:href="#DejaVuSans-cd2" transform="translate(1217.421875 0)"/>
      <use xlink:href="#DejaVuSans-3" transform="translate(1301.21875 0)"/>
      <use xlink:href="#DejaVuSans-16" transform="translate(1333 0)"/>
      <use xlink:href="#DejaVuSans-16" transform="translate(1396.625 0)"/>
      <use xlink:href="#DejaVuSans-18" transform="translate(1460.25 0)"/>
      <use xlink:href="#DejaVuSans-3" transform="translate(1523.875 0)"/>
      <use xlink:href="#DejaVuSans-51" transform="translate(1555.65625 0)"/>
      <use xlink:href="#DejaVuSans-56" transform="translate(1619.03125 0)"/>
      <use xlink:href="#DejaVuSans-1e" transform="translate(1671.125 0)"/>
      <use xlink:href="#DejaVuSans-3" transform="translate(1704.8125 0)"/>
      <use xlink:href="#DejaVuSans-56" transform="translate(1736.59375 0)"/>
      <use xlink:href="#DejaVuSans-5c" transform="translate(1788.6875 0)"/>
      <use xlink:href="#DejaVuSans-50" transform="translate(1847.875 0)"/>
      <use xlink:href="#DejaVuSans-4f" transform="translate(1945.28125 0)"/>
      <use xlink:href="#DejaVuSans-52" transform="translate(1973.0625 0)"/>
      <use xlink:href="#DejaVuSans-4a" transform="translate(2034.25 0)"/>
      <use xlink:href="#DejaVuSans-3" transform="translate(2097.734375 0)"/>
      <use xlink:href="#DejaVuSans-56" transform="translate(2129.515625 0)"/>
      <use xlink:href="#DejaVuSans-46" transform="translate(2181.609375 0)"/>
      <use xlink:href="#DejaVuSans-44" transform="translate(2236.59375 0)"/>
      <use xlink:href="#DejaVuSans-4f" transform="translate(2297.875 0)"/>
      <use xlink:href="#DejaVuSans-48" transform="translate(2325.65625 0)"/>
      <use xlink:href="#DejaVuSans-c" transform="translate(2387.1875 0)"/>
     </g>
    </g>
   </g>
   <g id="matplotlib.axis_6">
    <g id="ytick_14">
     <g id="line2d_85">
      <path d="M 50.465625 660.878288
L 865.19952 660.878288
" clip-path="url(#pcdecb854b6)" style="fill: none; stroke: #b0b0b0; stroke-opacity: 0.24; stroke-width: 0.55; stroke-linecap: square"/>
     </g>
     <g id="line2d_86">
      <g>
       <use xlink:href="#mbeb1b13f03" x="50.465625" y="660.878288" style="stroke: #000000; stroke-width: 0.8"/>
      </g>
     </g>
     <g id="text_29">
      <!-- 0.90 -->
      <g transform="translate(21.2 664.677116) scale(0.1 -0.1)">
       <defs>
        <path id="DejaVuSans-1c" d="M 703 97
L 703 672
Q 941 559 1184 500
Q 1428 441 1663 441
Q 2288 441 2617 861
Q 2947 1281 2994 2138
Q 2813 1869 2534 1725
Q 2256 1581 1919 1581
Q 1219 1581 811 2004
Q 403 2428 403 3163
Q 403 3881 828 4315
Q 1253 4750 1959 4750
Q 2769 4750 3195 4129
Q 3622 3509 3622 2328
Q 3622 1225 3098 567
Q 2575 -91 1691 -91
Q 1453 -91 1209 -44
Q 966 3 703 97
z
M 1959 2075
Q 2384 2075 2632 2365
Q 2881 2656 2881 3163
Q 2881 3666 2632 3958
Q 2384 4250 1959 4250
Q 1534 4250 1286 3958
Q 1038 3666 1038 3163
Q 1038 2656 1286 2365
Q 1534 2075 1959 2075
z
" transform="scale(0.015625)"/>
       </defs>
       <use xlink:href="#DejaVuSans-13"/>
       <use xlink:href="#DejaVuSans-11" transform="translate(63.625 0)"/>
       <use xlink:href="#DejaVuSans-1c" transform="translate(95.40625 0)"/>
       <use xlink:href="#DejaVuSans-13" transform="translate(159.03125 0)"/>
      </g>
     </g>
    </g>
    <g id="ytick_15">
     <g id="line2d_87">
      <path d="M 50.465625 618.898435
L 865.19952 618.898435
" clip-path="url(#pcdecb854b6)" style="fill: none; stroke: #b0b0b0; stroke-opacity: 0.24; stroke-width: 0.55; stroke-linecap: square"/>
     </g>
     <g id="line2d_88">
      <g>
       <use xlink:href="#mbeb1b13f03" x="50.465625" y="618.898435" style="stroke: #000000; stroke-width: 0.8"/>
      </g>
     </g>
     <g id="text_30">
      <!-- 0.95 -->
      <g transform="translate(21.2 622.697263) scale(0.1 -0.1)">
       <use xlink:href="#DejaVuSans-13"/>
       <use xlink:href="#DejaVuSans-11" transform="translate(63.625 0)"/>
       <use xlink:href="#DejaVuSans-1c" transform="translate(95.40625 0)"/>
       <use xlink:href="#DejaVuSans-18" transform="translate(159.03125 0)"/>
      </g>
     </g>
    </g>
    <g id="ytick_16">
     <g id="line2d_89">
      <path d="M 50.465625 576.918582
L 865.19952 576.918582
" clip-path="url(#pcdecb854b6)" style="fill: none; stroke: #b0b0b0; stroke-opacity: 0.24; stroke-width: 0.55; stroke-linecap: square"/>
     </g>
     <g id="line2d_90">
      <g>
       <use xlink:href="#mbeb1b13f03" x="50.465625" y="576.918582" style="stroke: #000000; stroke-width: 0.8"/>
      </g>
     </g>
     <g id="text_31">
      <!-- 1.00 -->
      <g transform="translate(21.2 580.71741) scale(0.1 -0.1)">
       <use xlink:href="#DejaVuSans-14"/>
       <use xlink:href="#DejaVuSans-11" transform="translate(63.625 0)"/>
       <use xlink:href="#DejaVuSans-13" transform="translate(95.40625 0)"/>
       <use xlink:href="#DejaVuSans-13" transform="translate(159.03125 0)"/>
      </g>
     </g>
    </g>
    <g id="ytick_17">
     <g id="line2d_91">
      <path d="M 50.465625 534.938728
L 865.19952 534.938728
" clip-path="url(#pcdecb854b6)" style="fill: none; stroke: #b0b0b0; stroke-opacity: 0.24; stroke-width: 0.55; stroke-linecap: square"/>
     </g>
     <g id="line2d_92">
      <g>
       <use xlink:href="#mbeb1b13f03" x="50.465625" y="534.938728" style="stroke: #000000; stroke-width: 0.8"/>
      </g>
     </g>
     <g id="text_32">
      <!-- 1.05 -->
      <g transform="translate(21.2 538.737557) scale(0.1 -0.1)">
       <use xlink:href="#DejaVuSans-14"/>
       <use xlink:href="#DejaVuSans-11" transform="translate(63.625 0)"/>
       <use xlink:href="#DejaVuSans-13" transform="translate(95.40625 0)"/>
       <use xlink:href="#DejaVuSans-18" transform="translate(159.03125 0)"/>
      </g>
     </g>
    </g>
    <g id="ytick_18">
     <g id="line2d_93">
      <path d="M 50.465625 492.958875
L 865.19952 492.958875
" clip-path="url(#pcdecb854b6)" style="fill: none; stroke: #b0b0b0; stroke-opacity: 0.24; stroke-width: 0.55; stroke-linecap: square"/>
     </g>
     <g id="line2d_94">
      <g>
       <use xlink:href="#mbeb1b13f03" x="50.465625" y="492.958875" style="stroke: #000000; stroke-width: 0.8"/>
      </g>
     </g>
     <g id="text_33">
      <!-- 1.10 -->
      <g transform="translate(21.2 496.757703) scale(0.1 -0.1)">
       <use xlink:href="#DejaVuSans-14"/>
       <use xlink:href="#DejaVuSans-11" transform="translate(63.625 0)"/>
       <use xlink:href="#DejaVuSans-14" transform="translate(95.40625 0)"/>
       <use xlink:href="#DejaVuSans-13" transform="translate(159.03125 0)"/>
      </g>
     </g>
    </g>
    <g id="text_34">
     <!-- Process CPU (cores) -->
     <g transform="translate(14.797656 639.16901) rotate(-90) scale(0.1 -0.1)">
      <defs>
       <path id="DejaVuSans-38" d="M 556 4666
L 1191 4666
L 1191 1831
Q 1191 1081 1462 751
Q 1734 422 2344 422
Q 2950 422 3222 751
Q 3494 1081 3494 1831
L 3494 4666
L 4128 4666
L 4128 1753
Q 4128 841 3676 375
Q 3225 -91 2344 -91
Q 1459 -91 1007 375
Q 556 841 556 1753
L 556 4666
z
" transform="scale(0.015625)"/>
      </defs>
      <use xlink:href="#DejaVuSans-33"/>
      <use xlink:href="#DejaVuSans-55" transform="translate(58.546875 0)"/>
      <use xlink:href="#DejaVuSans-52" transform="translate(97.453125 0)"/>
      <use xlink:href="#DejaVuSans-46" transform="translate(158.640625 0)"/>
      <use xlink:href="#DejaVuSans-48" transform="translate(213.625 0)"/>
      <use xlink:href="#DejaVuSans-56" transform="translate(275.15625 0)"/>
      <use xlink:href="#DejaVuSans-56" transform="translate(327.25 0)"/>
      <use xlink:href="#DejaVuSans-3" transform="translate(379.34375 0)"/>
      <use xlink:href="#DejaVuSans-26" transform="translate(411.125 0)"/>
      <use xlink:href="#DejaVuSans-33" transform="translate(480.953125 0)"/>
      <use xlink:href="#DejaVuSans-38" transform="translate(541.25 0)"/>
      <use xlink:href="#DejaVuSans-3" transform="translate(614.4375 0)"/>
      <use xlink:href="#DejaVuSans-b" transform="translate(646.21875 0)"/>
      <use xlink:href="#DejaVuSans-46" transform="translate(685.234375 0)"/>
      <use xlink:href="#DejaVuSans-52" transform="translate(740.21875 0)"/>
      <use xlink:href="#DejaVuSans-55" transform="translate(801.40625 0)"/>
      <use xlink:href="#DejaVuSans-48" transform="translate(840.3125 0)"/>
      <use xlink:href="#DejaVuSans-56" transform="translate(901.84375 0)"/>
      <use xlink:href="#DejaVuSans-c" transform="translate(953.9375 0)"/>
     </g>
    </g>
   </g>
   <g id="line2d_95">
    <path d="M 78.214223 497.996458
L 263.204874 498.836055
L 340.310968 498.836055
L 417.417063 499.675652
L 519.345775 498.836055
L 596.45187 501.354846
L 673.557964 504.713234
L 775.486677 518.986384
L 852.592771 524.863564
" clip-path="url(#pcdecb854b6)" style="fill: none; stroke: #2f6f9f; stroke-width: 1.7; stroke-linecap: square"/>
    <defs>
     <path id="m8c7e943795" d="M 0 3
C 0.795609 3 1.55874 2.683901 2.12132 2.12132
C 2.683901 1.55874 3 0.795609 3 0
C 3 -0.795609 2.683901 -1.55874 2.12132 -2.12132
C 1.55874 -2.683901 0.795609 -3 0 -3
C -0.795609 -3 -1.55874 -2.683901 -2.12132 -2.12132
C -2.683901 -1.55874 -3 -0.795609 -3 0
C -3 0.795609 -2.683901 1.55874 -2.12132 2.12132
C -1.55874 2.683901 -0.795609 3 0 3
z
" style="stroke: #2f6f9f"/>
    </defs>
    <g clip-path="url(#pcdecb854b6)">
     <use xlink:href="#m8c7e943795" x="78.214223" y="497.996458" style="fill: #2f6f9f; stroke: #2f6f9f"/>
     <use xlink:href="#m8c7e943795" x="263.204874" y="498.836055" style="fill: #2f6f9f; stroke: #2f6f9f"/>
     <use xlink:href="#m8c7e943795" x="340.310968" y="498.836055" style="fill: #2f6f9f; stroke: #2f6f9f"/>
     <use xlink:href="#m8c7e943795" x="417.417063" y="499.675652" style="fill: #2f6f9f; stroke: #2f6f9f"/>
     <use xlink:href="#m8c7e943795" x="519.345775" y="498.836055" style="fill: #2f6f9f; stroke: #2f6f9f"/>
     <use xlink:href="#m8c7e943795" x="596.45187" y="501.354846" style="fill: #2f6f9f; stroke: #2f6f9f"/>
     <use xlink:href="#m8c7e943795" x="673.557964" y="504.713234" style="fill: #2f6f9f; stroke: #2f6f9f"/>
     <use xlink:href="#m8c7e943795" x="775.486677" y="518.986384" style="fill: #2f6f9f; stroke: #2f6f9f"/>
     <use xlink:href="#m8c7e943795" x="852.592771" y="524.863564" style="fill: #2f6f9f; stroke: #2f6f9f"/>
    </g>
   </g>
   <g id="line2d_96">
    <path d="M 78.214223 627.225559
L 263.204874 616.644956
L 340.310968 614.795324
L 417.417063 618.374526
L 519.345775 637.479558
L 596.45187 681.046249
L 673.557964 614.26134
L 775.486677 611.975957
L 852.592771 616.064795
" clip-path="url(#pcdecb854b6)" style="fill: none; stroke: #7a4e9d; stroke-width: 1.7; stroke-linecap: square"/>
    <defs>
     <path id="m9824d912d4" d="M -3 3
L 3 3
L 3 -3
L -3 -3
z
" style="stroke: #7a4e9d; stroke-linejoin: miter"/>
    </defs>
    <g clip-path="url(#pcdecb854b6)">
     <use xlink:href="#m9824d912d4" x="78.214223" y="627.225559" style="fill: #7a4e9d; stroke: #7a4e9d; stroke-linejoin: miter"/>
     <use xlink:href="#m9824d912d4" x="263.204874" y="616.644956" style="fill: #7a4e9d; stroke: #7a4e9d; stroke-linejoin: miter"/>
     <use xlink:href="#m9824d912d4" x="340.310968" y="614.795324" style="fill: #7a4e9d; stroke: #7a4e9d; stroke-linejoin: miter"/>
     <use xlink:href="#m9824d912d4" x="417.417063" y="618.374526" style="fill: #7a4e9d; stroke: #7a4e9d; stroke-linejoin: miter"/>
     <use xlink:href="#m9824d912d4" x="519.345775" y="637.479558" style="fill: #7a4e9d; stroke: #7a4e9d; stroke-linejoin: miter"/>
     <use xlink:href="#m9824d912d4" x="596.45187" y="681.046249" style="fill: #7a4e9d; stroke: #7a4e9d; stroke-linejoin: miter"/>
     <use xlink:href="#m9824d912d4" x="673.557964" y="614.26134" style="fill: #7a4e9d; stroke: #7a4e9d; stroke-linejoin: miter"/>
     <use xlink:href="#m9824d912d4" x="775.486677" y="611.975957" style="fill: #7a4e9d; stroke: #7a4e9d; stroke-linejoin: miter"/>
     <use xlink:href="#m9824d912d4" x="852.592771" y="616.064795" style="fill: #7a4e9d; stroke: #7a4e9d; stroke-linejoin: miter"/>
    </g>
   </g>
   <g id="patch_21">
    <path d="M 50.465625 690.198739
L 50.465625 488.843968
" style="fill: none; stroke: #000000; stroke-width: 0.8; stroke-linejoin: miter; stroke-linecap: square"/>
   </g>
   <g id="patch_22">
    <path d="M 50.465625 690.198739
L 865.19952 690.198739
" style="fill: none; stroke: #000000; stroke-width: 0.8; stroke-linejoin: miter; stroke-linecap: square"/>
   </g>
   <g id="text_35">
    <!-- CPU windows differ; compare trends only -->
    <g style="fill: #666666" transform="translate(696.398351 680.222673) scale(0.08 -0.08)">
     <defs>
      <path id="DejaVuSans-5a" d="M 269 3500
L 844 3500
L 1563 769
L 2278 3500
L 2956 3500
L 3675 769
L 4391 3500
L 4966 3500
L 4050 0
L 3372 0
L 2619 2869
L 1863 0
L 1184 0
L 269 3500
z
" transform="scale(0.015625)"/>
      <path id="DejaVuSans-13ae" d="M 4531 4863
L 4531 4384
L 3981 4384
Q 3672 4384 3551 4259
Q 3431 4134 3431 3809
L 3431 3500
L 4378 3500
L 4378 3053
L 3431 3053
L 3431 0
L 2853 0
L 2853 3053
L 1275 3053
L 1275 0
L 697 0
L 697 3053
L 147 3053
L 147 3500
L 697 3500
L 697 3744
Q 697 4328 969 4595
Q 1241 4863 1831 4863
L 2375 4863
L 2375 4384
L 1825 4384
Q 1516 4384 1394 4259
Q 1275 4134 1275 3809
L 1275 3500
L 2853 3500
L 2853 3744
Q 2853 4328 3125 4595
Q 3397 4863 3988 4863
L 4531 4863
z
" transform="scale(0.015625)"/>
     </defs>
     <use xlink:href="#DejaVuSans-26"/>
     <use xlink:href="#DejaVuSans-33" transform="translate(69.828125 0)"/>
     <use xlink:href="#DejaVuSans-38" transform="translate(130.125 0)"/>
     <use xlink:href="#DejaVuSans-3" transform="translate(203.3125 0)"/>
     <use xlink:href="#DejaVuSans-5a" transform="translate(235.09375 0)"/>
     <use xlink:href="#DejaVuSans-4c" transform="translate(316.875 0)"/>
     <use xlink:href="#DejaVuSans-51" transform="translate(344.65625 0)"/>
     <use xlink:href="#DejaVuSans-47" transform="translate(408.03125 0)"/>
     <use xlink:href="#DejaVuSans-52" transform="translate(471.515625 0)"/>
     <use xlink:href="#DejaVuSans-5a" transform="translate(532.703125 0)"/>
     <use xlink:href="#DejaVuSans-56" transform="translate(614.484375 0)"/>
     <use xlink:href="#DejaVuSans-3" transform="translate(666.578125 0)"/>
     <use xlink:href="#DejaVuSans-47" transform="translate(698.359375 0)"/>
     <use xlink:href="#DejaVuSans-4c" transform="translate(761.84375 0)"/>
     <use xlink:href="#DejaVuSans-13ae" transform="translate(789.625 0)"/>
     <use xlink:href="#DejaVuSans-48" transform="translate(858.515625 0)"/>
     <use xlink:href="#DejaVuSans-55" transform="translate(920.046875 0)"/>
     <use xlink:href="#DejaVuSans-1e" transform="translate(961.15625 0)"/>
     <use xlink:href="#DejaVuSans-3" transform="translate(994.84375 0)"/>
     <use xlink:href="#DejaVuSans-46" transform="translate(1026.625 0)"/>
     <use xlink:href="#DejaVuSans-52" transform="translate(1081.609375 0)"/>
     <use xlink:href="#DejaVuSans-50" transform="translate(1142.796875 0)"/>
     <use xlink:href="#DejaVuSans-53" transform="translate(1240.203125 0)"/>
     <use xlink:href="#DejaVuSans-44" transform="translate(1303.6875 0)"/>
     <use xlink:href="#DejaVuSans-55" transform="translate(1364.96875 0)"/>
     <use xlink:href="#DejaVuSans-48" transform="translate(1403.875 0)"/>
     <use xlink:href="#DejaVuSans-3" transform="translate(1465.40625 0)"/>
     <use xlink:href="#DejaVuSans-57" transform="translate(1497.1875 0)"/>
     <use xlink:href="#DejaVuSans-55" transform="translate(1536.390625 0)"/>
     <use xlink:href="#DejaVuSans-48" transform="translate(1575.296875 0)"/>
     <use xlink:href="#DejaVuSans-51" transform="translate(1636.828125 0)"/>
     <use xlink:href="#DejaVuSans-47" transform="translate(1700.203125 0)"/>
     <use xlink:href="#DejaVuSans-56" transform="translate(1763.6875 0)"/>
     <use xlink:href="#DejaVuSans-3" transform="translate(1815.78125 0)"/>
     <use xlink:href="#DejaVuSans-52" transform="translate(1847.5625 0)"/>
     <use xlink:href="#DejaVuSans-51" transform="translate(1908.75 0)"/>
     <use xlink:href="#DejaVuSans-4f" transform="translate(1972.125 0)"/>
     <use xlink:href="#DejaVuSans-5c" transform="translate(1999.90625 0)"/>
    </g>
   </g>
   <g id="legend_2">
    <g id="line2d_97">
     <path d="M 59.465625 660.295614
L 69.465625 660.295614
L 79.465625 660.295614
" style="fill: none; stroke: #2f6f9f; stroke-width: 1.7; stroke-linecap: square"/>
     <g>
      <use xlink:href="#m8c7e943795" x="69.465625" y="660.295614" style="fill: #2f6f9f; stroke: #2f6f9f"/>
     </g>
    </g>
    <g id="text_36">
     <!-- Client process cores (15s measurement) -->
     <g transform="translate(87.465625 663.795614) scale(0.1 -0.1)">
      <use xlink:href="#DejaVuSans-26"/>
      <use xlink:href="#DejaVuSans-4f" transform="translate(69.828125 0)"/>
      <use xlink:href="#DejaVuSans-4c" transform="translate(97.609375 0)"/>
      <use xlink:href="#DejaVuSans-48" transform="translate(125.390625 0)"/>
      <use xlink:href="#DejaVuSans-51" transform="translate(186.921875 0)"/>
      <use xlink:href="#DejaVuSans-57" transform="translate(250.296875 0)"/>
      <use xlink:href="#DejaVuSans-3" transform="translate(289.5 0)"/>
      <use xlink:href="#DejaVuSans-53" transform="translate(321.28125 0)"/>
      <use xlink:href="#DejaVuSans-55" transform="translate(384.765625 0)"/>
      <use xlink:href="#DejaVuSans-52" transform="translate(423.671875 0)"/>
      <use xlink:href="#DejaVuSans-46" transform="translate(484.859375 0)"/>
      <use xlink:href="#DejaVuSans-48" transform="translate(539.84375 0)"/>
      <use xlink:href="#DejaVuSans-56" transform="translate(601.375 0)"/>
      <use xlink:href="#DejaVuSans-56" transform="translate(653.46875 0)"/>
      <use xlink:href="#DejaVuSans-3" transform="translate(705.5625 0)"/>
      <use xlink:href="#DejaVuSans-46" transform="translate(737.34375 0)"/>
      <use xlink:href="#DejaVuSans-52" transform="translate(792.328125 0)"/>
      <use xlink:href="#DejaVuSans-55" transform="translate(853.515625 0)"/>
      <use xlink:href="#DejaVuSans-48" transform="translate(892.421875 0)"/>
      <use xlink:href="#DejaVuSans-56" transform="translate(953.953125 0)"/>
      <use xlink:href="#DejaVuSans-3" transform="translate(1006.046875 0)"/>
      <use xlink:href="#DejaVuSans-b" transform="translate(1037.828125 0)"/>
      <use xlink:href="#DejaVuSans-14" transform="translate(1076.84375 0)"/>
      <use xlink:href="#DejaVuSans-18" transform="translate(1140.46875 0)"/>
      <use xlink:href="#DejaVuSans-56" transform="translate(1204.09375 0)"/>
      <use xlink:href="#DejaVuSans-3" transform="translate(1256.1875 0)"/>
      <use xlink:href="#DejaVuSans-50" transform="translate(1287.96875 0)"/>
      <use xlink:href="#DejaVuSans-48" transform="translate(1385.375 0)"/>
      <use xlink:href="#DejaVuSans-44" transform="translate(1446.90625 0)"/>
      <use xlink:href="#DejaVuSans-56" transform="translate(1508.1875 0)"/>
      <use xlink:href="#DejaVuSans-58" transform="translate(1560.28125 0)"/>
      <use xlink:href="#DejaVuSans-55" transform="translate(1623.65625 0)"/>
      <use xlink:href="#DejaVuSans-48" transform="translate(1662.5625 0)"/>
      <use xlink:href="#DejaVuSans-50" transform="translate(1724.09375 0)"/>
      <use xlink:href="#DejaVuSans-48" transform="translate(1821.5 0)"/>
      <use xlink:href="#DejaVuSans-51" transform="translate(1883.03125 0)"/>
      <use xlink:href="#DejaVuSans-57" transform="translate(1946.40625 0)"/>
      <use xlink:href="#DejaVuSans-c" transform="translate(1985.609375 0)"/>
     </g>
    </g>
    <g id="line2d_98">
     <path d="M 59.465625 675.296395
L 69.465625 675.296395
L 79.465625 675.296395
" style="fill: none; stroke: #7a4e9d; stroke-width: 1.7; stroke-linecap: square"/>
     <g>
      <use xlink:href="#m9824d912d4" x="69.465625" y="675.296395" style="fill: #7a4e9d; stroke: #7a4e9d; stroke-linejoin: miter"/>
     </g>
    </g>
    <g id="text_37">
     <!-- Server cores (whole serve duration) -->
     <g transform="translate(87.465625 678.796395) scale(0.1 -0.1)">
      <defs>
       <path id="DejaVuSans-59" d="M 191 3500
L 800 3500
L 1894 563
L 2988 3500
L 3597 3500
L 2284 0
L 1503 0
L 191 3500
z
" transform="scale(0.015625)"/>
      </defs>
      <use xlink:href="#DejaVuSans-36"/>
      <use xlink:href="#DejaVuSans-48" transform="translate(63.484375 0)"/>
      <use xlink:href="#DejaVuSans-55" transform="translate(125.015625 0)"/>
      <use xlink:href="#DejaVuSans-59" transform="translate(166.125 0)"/>
      <use xlink:href="#DejaVuSans-48" transform="translate(225.3125 0)"/>
      <use xlink:href="#DejaVuSans-55" transform="translate(286.84375 0)"/>
      <use xlink:href="#DejaVuSans-3" transform="translate(327.953125 0)"/>
      <use xlink:href="#DejaVuSans-46" transform="translate(359.734375 0)"/>
      <use xlink:href="#DejaVuSans-52" transform="translate(414.71875 0)"/>
      <use xlink:href="#DejaVuSans-55" transform="translate(475.90625 0)"/>
      <use xlink:href="#DejaVuSans-48" transform="translate(514.8125 0)"/>
      <use xlink:href="#DejaVuSans-56" transform="translate(576.34375 0)"/>
      <use xlink:href="#DejaVuSans-3" transform="translate(628.4375 0)"/>
      <use xlink:href="#DejaVuSans-b" transform="translate(660.21875 0)"/>
      <use xlink:href="#DejaVuSans-5a" transform="translate(699.234375 0)"/>
      <use xlink:href="#DejaVuSans-4b" transform="translate(781.015625 0)"/>
      <use xlink:href="#DejaVuSans-52" transform="translate(844.390625 0)"/>
      <use xlink:href="#DejaVuSans-4f" transform="translate(905.578125 0)"/>
      <use xlink:href="#DejaVuSans-48" transform="translate(933.359375 0)"/>
      <use xlink:href="#DejaVuSans-3" transform="translate(994.890625 0)"/>
      <use xlink:href="#DejaVuSans-56" transform="translate(1026.671875 0)"/>
      <use xlink:href="#DejaVuSans-48" transform="translate(1078.765625 0)"/>
      <use xlink:href="#DejaVuSans-55" transform="translate(1140.296875 0)"/>
      <use xlink:href="#DejaVuSans-59" transform="translate(1181.40625 0)"/>
      <use xlink:href="#DejaVuSans-48" transform="translate(1240.59375 0)"/>
      <use xlink:href="#DejaVuSans-3" transform="translate(1302.125 0)"/>
      <use xlink:href="#DejaVuSans-47" transform="translate(1333.90625 0)"/>
      <use xlink:href="#DejaVuSans-58" transform="translate(1397.390625 0)"/>
      <use xlink:href="#DejaVuSans-55" transform="translate(1460.765625 0)"/>
      <use xlink:href="#DejaVuSans-44" transform="translate(1501.875 0)"/>
      <use xlink:href="#DejaVuSans-57" transform="translate(1563.15625 0)"/>
      <use xlink:href="#DejaVuSans-4c" transform="translate(1602.359375 0)"/>
      <use xlink:href="#DejaVuSans-52" transform="translate(1630.140625 0)"/>
      <use xlink:href="#DejaVuSans-51" transform="translate(1691.328125 0)"/>
      <use xlink:href="#DejaVuSans-c" transform="translate(1754.703125 0)"/>
     </g>
    </g>
   </g>
  </g>
  <g id="text_38">
   <!-- GQM delay: capacity and reliability boundary -->
   <g transform="translate(301.17726 17.519297) scale(0.12 -0.12)">
    <defs>
     <path id="DejaVuSans-45" d="M 3116 1747
Q 3116 2381 2855 2742
Q 2594 3103 2138 3103
Q 1681 3103 1420 2742
Q 1159 2381 1159 1747
Q 1159 1113 1420 752
Q 1681 391 2138 391
Q 2594 391 2855 752
Q 3116 1113 3116 1747
z
M 1159 2969
Q 1341 3281 1617 3432
Q 1894 3584 2278 3584
Q 2916 3584 3314 3078
Q 3713 2572 3713 1747
Q 3713 922 3314 415
Q 2916 -91 2278 -91
Q 1894 -91 1617 61
Q 1341 213 1159 525
L 1159 0
L 581 0
L 581 4863
L 1159 4863
L 1159 2969
z
" transform="scale(0.015625)"/>
    </defs>
    <use xlink:href="#DejaVuSans-2a"/>
    <use xlink:href="#DejaVuSans-34" transform="translate(77.484375 0)"/>
    <use xlink:href="#DejaVuSans-30" transform="translate(156.203125 0)"/>
    <use xlink:href="#DejaVuSans-3" transform="translate(242.484375 0)"/>
    <use xlink:href="#DejaVuSans-47" transform="translate(274.265625 0)"/>
    <use xlink:href="#DejaVuSans-48" transform="translate(337.75 0)"/>
    <use xlink:href="#DejaVuSans-4f" transform="translate(399.28125 0)"/>
    <use xlink:href="#DejaVuSans-44" transform="translate(427.0625 0)"/>
    <use xlink:href="#DejaVuSans-5c" transform="translate(488.34375 0)"/>
    <use xlink:href="#DejaVuSans-1d" transform="translate(540.25 0)"/>
    <use xlink:href="#DejaVuSans-3" transform="translate(573.9375 0)"/>
    <use xlink:href="#DejaVuSans-46" transform="translate(605.71875 0)"/>
    <use xlink:href="#DejaVuSans-44" transform="translate(660.703125 0)"/>
    <use xlink:href="#DejaVuSans-53" transform="translate(721.984375 0)"/>
    <use xlink:href="#DejaVuSans-44" transform="translate(785.46875 0)"/>
    <use xlink:href="#DejaVuSans-46" transform="translate(846.75 0)"/>
    <use xlink:href="#DejaVuSans-4c" transform="translate(901.734375 0)"/>
    <use xlink:href="#DejaVuSans-57" transform="translate(929.515625 0)"/>
    <use xlink:href="#DejaVuSans-5c" transform="translate(968.71875 0)"/>
    <use xlink:href="#DejaVuSans-3" transform="translate(1027.90625 0)"/>
    <use xlink:href="#DejaVuSans-44" transform="translate(1059.6875 0)"/>
    <use xlink:href="#DejaVuSans-51" transform="translate(1120.96875 0)"/>
    <use xlink:href="#DejaVuSans-47" transform="translate(1184.34375 0)"/>
    <use xlink:href="#DejaVuSans-3" transform="translate(1247.828125 0)"/>
    <use xlink:href="#DejaVuSans-55" transform="translate(1279.609375 0)"/>
    <use xlink:href="#DejaVuSans-48" transform="translate(1318.515625 0)"/>
    <use xlink:href="#DejaVuSans-4f" transform="translate(1380.046875 0)"/>
    <use xlink:href="#DejaVuSans-4c" transform="translate(1407.828125 0)"/>
    <use xlink:href="#DejaVuSans-44" transform="translate(1435.609375 0)"/>
    <use xlink:href="#DejaVuSans-45" transform="translate(1496.890625 0)"/>
    <use xlink:href="#DejaVuSans-4c" transform="translate(1560.375 0)"/>
    <use xlink:href="#DejaVuSans-4f" transform="translate(1588.15625 0)"/>
    <use xlink:href="#DejaVuSans-4c" transform="translate(1615.9375 0)"/>
    <use xlink:href="#DejaVuSans-57" transform="translate(1643.71875 0)"/>
    <use xlink:href="#DejaVuSans-5c" transform="translate(1682.921875 0)"/>
    <use xlink:href="#DejaVuSans-3" transform="translate(1742.109375 0)"/>
    <use xlink:href="#DejaVuSans-45" transform="translate(1773.890625 0)"/>
    <use xlink:href="#DejaVuSans-52" transform="translate(1837.375 0)"/>
    <use xlink:href="#DejaVuSans-58" transform="translate(1898.5625 0)"/>
    <use xlink:href="#DejaVuSans-51" transform="translate(1961.9375 0)"/>
    <use xlink:href="#DejaVuSans-47" transform="translate(2025.3125 0)"/>
    <use xlink:href="#DejaVuSans-44" transform="translate(2088.796875 0)"/>
    <use xlink:href="#DejaVuSans-55" transform="translate(2150.078125 0)"/>
    <use xlink:href="#DejaVuSans-5c" transform="translate(2191.1875 0)"/>
   </g>
   <!-- Ubmem | OpenLoop Poisson | Unary64 | 1 client thread / connection | max_inflight=496 | single run -->
   <g transform="translate(137.285385 31.975078) scale(0.12 -0.12)">
    <defs>
     <path id="DejaVuSans-5f" d="M 1344 4891
L 1344 -1509
L 813 -1509
L 813 4891
L 1344 4891
z
" transform="scale(0.015625)"/>
     <path id="DejaVuSans-32" d="M 2522 4238
Q 1834 4238 1429 3725
Q 1025 3213 1025 2328
Q 1025 1447 1429 934
Q 1834 422 2522 422
Q 3209 422 3611 934
Q 4013 1447 4013 2328
Q 4013 3213 3611 3725
Q 3209 4238 2522 4238
z
M 2522 4750
Q 3503 4750 4090 4092
Q 4678 3434 4678 2328
Q 4678 1225 4090 567
Q 3503 -91 2522 -91
Q 1538 -91 948 565
Q 359 1222 359 2328
Q 359 3434 948 4092
Q 1538 4750 2522 4750
z
" transform="scale(0.015625)"/>
     <path id="DejaVuSans-2f" d="M 628 4666
L 1259 4666
L 1259 531
L 3531 531
L 3531 0
L 628 0
L 628 4666
z
" transform="scale(0.015625)"/>
     <path id="DejaVuSans-12" d="M 1625 4666
L 2156 4666
L 531 -594
L 0 -594
L 1625 4666
z
" transform="scale(0.015625)"/>
     <path id="DejaVuSans-42" d="M 3263 -1063
L 3263 -1509
L -63 -1509
L -63 -1063
L 3263 -1063
z
" transform="scale(0.015625)"/>
     <path id="DejaVuSans-13b0" d="M 1831 4863
L 3431 4863
L 3431 0
L 2853 0
L 2853 4384
L 1825 4384
Q 1516 4384 1395 4259
Q 1275 4134 1275 3809
L 1275 3500
L 2222 3500
L 2222 3053
L 1275 3053
L 1275 0
L 697 0
L 697 3053
L 147 3053
L 147 3500
L 697 3500
L 697 3744
Q 697 4328 969 4595
Q 1241 4863 1831 4863
z
" transform="scale(0.015625)"/>
     <path id="DejaVuSans-20" d="M 678 2906
L 4684 2906
L 4684 2381
L 678 2381
L 678 2906
z
M 678 1631
L 4684 1631
L 4684 1100
L 678 1100
L 678 1631
z
" transform="scale(0.015625)"/>
    </defs>
    <use xlink:href="#DejaVuSans-38"/>
    <use xlink:href="#DejaVuSans-45" transform="translate(73.1875 0)"/>
    <use xlink:href="#DejaVuSans-50" transform="translate(136.671875 0)"/>
    <use xlink:href="#DejaVuSans-48" transform="translate(234.078125 0)"/>
    <use xlink:href="#DejaVuSans-50" transform="translate(295.609375 0)"/>
    <use xlink:href="#DejaVuSans-3" transform="translate(393.015625 0)"/>
    <use xlink:href="#DejaVuSans-5f" transform="translate(424.796875 0)"/>
    <use xlink:href="#DejaVuSans-3" transform="translate(458.484375 0)"/>
    <use xlink:href="#DejaVuSans-32" transform="translate(490.265625 0)"/>
    <use xlink:href="#DejaVuSans-53" transform="translate(568.984375 0)"/>
    <use xlink:href="#DejaVuSans-48" transform="translate(632.46875 0)"/>
    <use xlink:href="#DejaVuSans-51" transform="translate(694 0)"/>
    <use xlink:href="#DejaVuSans-2f" transform="translate(757.375 0)"/>
    <use xlink:href="#DejaVuSans-52" transform="translate(811.34375 0)"/>
    <use xlink:href="#DejaVuSans-52" transform="translate(872.53125 0)"/>
    <use xlink:href="#DejaVuSans-53" transform="translate(933.71875 0)"/>
    <use xlink:href="#DejaVuSans-3" transform="translate(997.203125 0)"/>
    <use xlink:href="#DejaVuSans-33" transform="translate(1028.984375 0)"/>
    <use xlink:href="#DejaVuSans-52" transform="translate(1085.71875 0)"/>
    <use xlink:href="#DejaVuSans-4c" transform="translate(1146.90625 0)"/>
    <use xlink:href="#DejaVuSans-56" transform="translate(1174.6875 0)"/>
    <use xlink:href="#DejaVuSans-56" transform="translate(1226.78125 0)"/>
    <use xlink:href="#DejaVuSans-52" transform="translate(1278.875 0)"/>
    <use xlink:href="#DejaVuSans-51" transform="translate(1340.0625 0)"/>
    <use xlink:href="#DejaVuSans-3" transform="translate(1403.4375 0)"/>
    <use xlink:href="#DejaVuSans-5f" transform="translate(1435.21875 0)"/>
    <use xlink:href="#DejaVuSans-3" transform="translate(1468.90625 0)"/>
    <use xlink:href="#DejaVuSans-38" transform="translate(1500.6875 0)"/>
    <use xlink:href="#DejaVuSans-51" transform="translate(1573.875 0)"/>
    <use xlink:href="#DejaVuSans-44" transform="translate(1637.25 0)"/>
    <use xlink:href="#DejaVuSans-55" transform="translate(1698.53125 0)"/>
    <use xlink:href="#DejaVuSans-5c" transform="translate(1739.640625 0)"/>
    <use xlink:href="#DejaVuSans-19" transform="translate(1798.828125 0)"/>
    <use xlink:href="#DejaVuSans-17" transform="translate(1862.453125 0)"/>
    <use xlink:href="#DejaVuSans-3" transform="translate(1926.078125 0)"/>
    <use xlink:href="#DejaVuSans-5f" transform="translate(1957.859375 0)"/>
    <use xlink:href="#DejaVuSans-3" transform="translate(1991.546875 0)"/>
    <use xlink:href="#DejaVuSans-14" transform="translate(2023.328125 0)"/>
    <use xlink:href="#DejaVuSans-3" transform="translate(2086.953125 0)"/>
    <use xlink:href="#DejaVuSans-46" transform="translate(2118.734375 0)"/>
    <use xlink:href="#DejaVuSans-4f" transform="translate(2173.71875 0)"/>
    <use xlink:href="#DejaVuSans-4c" transform="translate(2201.5 0)"/>
    <use xlink:href="#DejaVuSans-48" transform="translate(2229.28125 0)"/>
    <use xlink:href="#DejaVuSans-51" transform="translate(2290.8125 0)"/>
    <use xlink:href="#DejaVuSans-57" transform="translate(2354.1875 0)"/>
    <use xlink:href="#DejaVuSans-3" transform="translate(2393.390625 0)"/>
    <use xlink:href="#DejaVuSans-57" transform="translate(2425.171875 0)"/>
    <use xlink:href="#DejaVuSans-4b" transform="translate(2464.375 0)"/>
    <use xlink:href="#DejaVuSans-55" transform="translate(2527.75 0)"/>
    <use xlink:href="#DejaVuSans-48" transform="translate(2566.65625 0)"/>
    <use xlink:href="#DejaVuSans-44" transform="translate(2628.1875 0)"/>
    <use xlink:href="#DejaVuSans-47" transform="translate(2689.46875 0)"/>
    <use xlink:href="#DejaVuSans-3" transform="translate(2752.953125 0)"/>
    <use xlink:href="#DejaVuSans-12" transform="translate(2784.734375 0)"/>
    <use xlink:href="#DejaVuSans-3" transform="translate(2818.421875 0)"/>
    <use xlink:href="#DejaVuSans-46" transform="translate(2850.203125 0)"/>
    <use xlink:href="#DejaVuSans-52" transform="translate(2905.1875 0)"/>
    <use xlink:href="#DejaVuSans-51" transform="translate(2966.375 0)"/>
    <use xlink:href="#DejaVuSans-51" transform="translate(3029.75 0)"/>
    <use xlink:href="#DejaVuSans-48" transform="translate(3093.125 0)"/>
    <use xlink:href="#DejaVuSans-46" transform="translate(3154.65625 0)"/>
    <use xlink:href="#DejaVuSans-57" transform="translate(3209.640625 0)"/>
    <use xlink:href="#DejaVuSans-4c" transform="translate(3248.84375 0)"/>
    <use xlink:href="#DejaVuSans-52" transform="translate(3276.625 0)"/>
    <use xlink:href="#DejaVuSans-51" transform="translate(3337.8125 0)"/>
    <use xlink:href="#DejaVuSans-3" transform="translate(3401.1875 0)"/>
    <use xlink:href="#DejaVuSans-5f" transform="translate(3432.96875 0)"/>
    <use xlink:href="#DejaVuSans-3" transform="translate(3466.65625 0)"/>
    <use xlink:href="#DejaVuSans-50" transform="translate(3498.4375 0)"/>
    <use xlink:href="#DejaVuSans-44" transform="translate(3595.84375 0)"/>
    <use xlink:href="#DejaVuSans-5b" transform="translate(3657.125 0)"/>
    <use xlink:href="#DejaVuSans-42" transform="translate(3716.3125 0)"/>
    <use xlink:href="#DejaVuSans-4c" transform="translate(3766.3125 0)"/>
    <use xlink:href="#DejaVuSans-51" transform="translate(3794.09375 0)"/>
    <use xlink:href="#DejaVuSans-13b0" transform="translate(3857.46875 0)"/>
    <use xlink:href="#DejaVuSans-4c" transform="translate(3920.453125 0)"/>
    <use xlink:href="#DejaVuSans-4a" transform="translate(3948.234375 0)"/>
    <use xlink:href="#DejaVuSans-4b" transform="translate(4011.71875 0)"/>
    <use xlink:href="#DejaVuSans-57" transform="translate(4075.09375 0)"/>
    <use xlink:href="#DejaVuSans-20" transform="translate(4114.296875 0)"/>
    <use xlink:href="#DejaVuSans-17" transform="translate(4198.09375 0)"/>
    <use xlink:href="#DejaVuSans-1c" transform="translate(4261.71875 0)"/>
    <use xlink:href="#DejaVuSans-19" transform="translate(4325.34375 0)"/>
    <use xlink:href="#DejaVuSans-3" transform="translate(4388.96875 0)"/>
    <use xlink:href="#DejaVuSans-5f" transform="translate(4420.75 0)"/>
    <use xlink:href="#DejaVuSans-3" transform="translate(4454.4375 0)"/>
    <use xlink:href="#DejaVuSans-56" transform="translate(4486.21875 0)"/>
    <use xlink:href="#DejaVuSans-4c" transform="translate(4538.3125 0)"/>
    <use xlink:href="#DejaVuSans-51" transform="translate(4566.09375 0)"/>
    <use xlink:href="#DejaVuSans-4a" transform="translate(4629.46875 0)"/>
    <use xlink:href="#DejaVuSans-4f" transform="translate(4692.953125 0)"/>
    <use xlink:href="#DejaVuSans-48" transform="translate(4720.734375 0)"/>
    <use xlink:href="#DejaVuSans-3" transform="translate(4782.265625 0)"/>
    <use xlink:href="#DejaVuSans-55" transform="translate(4814.046875 0)"/>
    <use xlink:href="#DejaVuSans-58" transform="translate(4855.15625 0)"/>
    <use xlink:href="#DejaVuSans-51" transform="translate(4918.53125 0)"/>
   </g>
  </g>
 </g>
 <defs>
  <clipPath id="p1f618138a5">
   <rect x="50.465625" y="42.059543" width="814.733895" height="223.727523"/>
  </clipPath>
  <clipPath id="p2496a8549c">
   <rect x="50.465625" y="275.287545" width="814.733895" height="201.354771"/>
  </clipPath>
  <clipPath id="pcdecb854b6">
   <rect x="50.465625" y="488.843968" width="814.733895" height="201.354771"/>
  </clipPath>
 </defs>
</svg>
